<svg width="29" height="29" viewBox="0 0 29 29" fill="none" xmlns="http://www.w3.org/2000/svg">
<g clip-path="url(#clip0_2340_98623)">
<path d="M25.167 18.7671C25.167 14.2905 22.1319 11.1968 16.7881 11.1968H8.91308L5.28027 11.3608L5.49121 11.8999L8.38574 9.42725L11.7725 6.12256C11.9482 5.93506 12.0537 5.7124 12.0537 5.40771C12.0537 4.79833 11.6436 4.37646 11.0107 4.37646C10.7646 4.37646 10.46 4.50537 10.2607 4.70458L3.37012 11.4663C3.13574 11.689 3.01855 11.9585 3.01855 12.2515C3.01855 12.5327 3.13574 12.8022 3.37012 13.0249L10.2607 19.7866C10.46 19.9976 10.7646 20.1148 11.0107 20.1148C11.6436 20.1148 12.0537 19.6929 12.0537 19.0835C12.0537 18.7788 11.9482 18.5562 11.7725 18.3687L8.38574 15.0757L5.49121 12.5913L5.28027 13.1304L8.91308 13.2944H16.9639C20.96 13.2944 23.0694 15.4976 23.0694 18.6499C23.0694 21.814 20.96 24.1577 16.9639 24.1577H14.2686C13.6241 24.1577 13.2022 24.6265 13.2022 25.2007C13.2022 25.7749 13.6241 26.2437 14.2686 26.2437H16.9756C22.2139 26.2437 25.167 23.2554 25.167 18.7671Z" fill="currentColor" fill-opacity="0.85"/>
</g>
<defs>
<clipPath id="clip0_2340_98623">
<rect width="22.1484" height="24.2227" fill="white" transform="translate(3.01855 2.021)"/>
</clipPath>
</defs>
</svg>
