<svg width="29" height="29" viewBox="0 0 29 29" fill="none" xmlns="http://www.w3.org/2000/svg">
<g clip-path="url(#clip0_2340_98689)">
<path d="M3.04199 18.7671C3.04199 23.2554 5.9834 26.2437 11.2334 26.2437H13.9404C14.585 26.2437 15.0068 25.7749 15.0068 25.2007C15.0068 24.6265 14.585 24.1577 13.9404 24.1577H11.2451C7.24902 24.1577 5.12793 21.814 5.12793 18.6499C5.12793 15.4976 7.24902 13.2944 11.2451 13.2944H19.2842L22.9287 13.1304L22.7178 12.5913L19.8115 15.0757L16.4365 18.3687C16.249 18.5562 16.1553 18.7788 16.1553 19.0835C16.1553 19.6929 16.5654 20.1148 17.1865 20.1148C17.4443 20.1148 17.749 19.9976 17.9482 19.7866L24.8389 13.0249C25.0732 12.8022 25.1904 12.5327 25.1904 12.2515C25.1904 11.9585 25.0732 11.689 24.8389 11.4663L17.9482 4.70458C17.749 4.50537 17.4443 4.37646 17.1865 4.37646C16.5654 4.37646 16.1553 4.79833 16.1553 5.40771C16.1553 5.7124 16.249 5.93506 16.4365 6.12256L19.8115 9.42725L22.7178 11.8999L22.9287 11.3608L19.2842 11.1968H11.4209C6.06543 11.1968 3.04199 14.2905 3.04199 18.7671Z" fill="currentColor" fill-opacity="0.85"/>
</g>
<defs>
<clipPath id="clip0_2340_98689">
<rect width="22.1484" height="24.2227" fill="white" transform="translate(3.04199 2.021)"/>
</clipPath>
</defs>
</svg>
