<svg width="30" height="29" viewBox="0 0 30 29" fill="none" xmlns="http://www.w3.org/2000/svg">
<g clip-path="url(#clip0_2340_99367)">
<path d="M0.306899 11.1572C0.717055 11.5674 1.26784 11.5205 1.66627 11.1338L2.79127 10.0205L4.52565 8.18067V20.9775C4.52565 23.4033 5.76784 24.6104 8.20534 24.6104H17.7444C18.4124 24.6104 18.7991 24.2705 18.7874 23.6729C18.7757 23.0635 18.4124 22.7236 17.7444 22.7236H8.24049C7.06862 22.7236 6.41237 22.1025 6.41237 20.8838V8.15723L8.15846 10.0205L9.28346 11.1338C9.6819 11.5205 10.2444 11.5674 10.6428 11.1572C11.0413 10.7705 11.0178 10.1963 10.6194 9.79786L6.67018 5.86036C5.90846 5.11036 5.05299 5.11036 4.29127 5.86036L0.342055 9.79786C-0.0681011 10.1963 -0.0798196 10.7705 0.306899 11.1572ZM10.2796 3.97363C10.2913 4.57129 10.6546 4.92286 11.3225 4.92286H20.8382C22.01 4.92286 22.6546 5.54395 22.6546 6.7627V19.4893L20.9085 17.6143L19.7835 16.5127C19.385 16.126 18.8343 16.0791 18.4241 16.4775C18.0257 16.876 18.0491 17.4502 18.4475 17.8486L22.3968 21.7744C23.1702 22.5361 24.0139 22.5361 24.7874 21.7744L28.7249 17.8486C29.135 17.4502 29.1468 16.876 28.76 16.4775C28.3616 16.0791 27.7991 16.1143 27.4007 16.5127L26.2757 17.6143L24.5413 19.4658V6.66895C24.5413 4.24317 23.3108 3.03613 20.8616 3.03613H11.3225C10.6546 3.03613 10.2678 3.37598 10.2796 3.97363Z" fill="currentColor" fill-opacity="0.85"/>
</g>
<defs>
<clipPath id="clip0_2340_99367">
<rect width="29.0161" height="21.5977" fill="white" transform="translate(0.0253906 3.0127)"/>
</clipPath>
</defs>
</svg>
