	<svg xmlns="http://www.w3.org/2000/svg" width="29" height="29" viewBox="0 0 29 29" fill="none">
		<g clip-path="url(#clip0_2340_98133)">
			<path
				d="M14.0332 25.9243C20.5723 25.9243 25.9863 20.4986 25.9863 13.9712C25.9863 7.43213 20.5606 2.01807 14.0215 2.01807C7.49414 2.01807 2.08008 7.43213 2.08008 13.9712C2.08008 20.4986 7.50586 25.9243 14.0332 25.9243Z"
				fill="currentColor"
			/>
			<path
				d="M14.0449 20.0181C13.5176 20.0181 13.1309 19.6431 13.1309 19.104V13.0923L13.2363 10.5259L12.0293 11.979L10.5996 13.4204C10.4356 13.5845 10.2012 13.69 9.95508 13.69C9.45117 13.69 9.07617 13.3033 9.07617 12.8111C9.07617 12.5533 9.14649 12.3423 9.31055 12.1783L13.3418 8.15869C13.5879 7.9126 13.7871 7.81885 14.0449 7.81885C14.3145 7.81885 14.5254 7.92432 14.7598 8.15869L18.7793 12.1783C18.9434 12.3423 19.0371 12.5533 19.0371 12.8111C19.0371 13.3033 18.6504 13.69 18.1465 13.69C17.8887 13.69 17.666 13.5962 17.502 13.4204L16.084 11.979L14.8535 10.5142L14.959 13.0923V19.104C14.959 19.6431 14.584 20.0181 14.0449 20.0181Z"
				fill="white"
			/>
		</g>
		<defs>
			<clipPath id="clip0_2340_98133">
				<rect width="23.9062" height="23.918" fill="white" transform="translate(2.08008 2.01807)" />
			</clipPath>
		</defs>
	</svg>