<svg width="28" height="29" viewBox="0 0 28 29" fill="none" xmlns="http://www.w3.org/2000/svg">
<g clip-path="url(#clip0_2340_96868)">
<path d="M8.98267 22.7886H15.0881C18.6741 22.7886 20.9358 20.9019 20.9358 18.0074C20.9358 15.7222 19.2834 14.0698 16.9045 13.9409V13.8472C18.8499 13.5776 20.1741 12.1128 20.1741 10.2495C20.1741 7.63623 18.1702 6.03076 14.9241 6.03076H8.98267C7.72876 6.03076 7.0022 6.76904 7.0022 8.0581V20.773C7.0022 22.0503 7.72876 22.7886 8.98267 22.7886ZM10.8694 20.0816V15.4292H13.8108C15.8616 15.4292 17.01 16.2261 17.01 17.7261C17.01 19.2613 15.9084 20.0816 13.8928 20.0816H10.8694ZM10.8694 12.9917V8.78467H13.7522C15.3928 8.78467 16.3655 9.53467 16.3655 10.8237C16.3655 12.1831 15.2874 12.9917 13.4592 12.9917H10.8694Z" fill="currentColor" fill-opacity="0.85"/>
</g>
<defs>
<clipPath id="clip0_2340_96868">
<rect width="13.9336" height="16.7695" fill="white" transform="translate(7.0022 6.03076)"/>
</clipPath>
</defs>
</svg>
