<svg width="29" height="29" viewBox="0 0 29 29" fill="none" xmlns="http://www.w3.org/2000/svg">
<g clip-path="url(#clip0_2340_96798)">
<path d="M8.06006 22.3506C8.68115 22.3506 8.98584 22.1162 9.20849 21.46L10.7202 17.3232H17.6343L19.146 21.46C19.3687 22.1162 19.6734 22.3506 20.2827 22.3506C20.9038 22.3506 21.3023 21.9756 21.3023 21.3897C21.3023 21.1904 21.2671 21.0029 21.1734 20.7568L15.6772 6.12011C15.4077 5.40527 14.9272 5.04199 14.1772 5.04199C13.4507 5.04199 12.9585 5.39355 12.7007 6.1084L7.20459 20.7686C7.11084 21.0147 7.07568 21.2022 7.07568 21.4014C7.07568 21.9873 7.45068 22.3506 8.06006 22.3506ZM11.2944 15.542L14.1421 7.65527H14.2007L17.0483 15.542H11.2944Z" fill="currentColor" fill-opacity="0.85"/>
</g>
<defs>
<clipPath id="clip0_2340_96798">
<rect width="14.2266" height="17.332" fill="white" transform="translate(7.07568 5.04199)"/>
</clipPath>
</defs>
</svg>
