<svg width="29" height="29" viewBox="0 0 29 29" fill="none" xmlns="http://www.w3.org/2000/svg">
<g clip-path="url(#clip0_2340_81079)">
<path d="M8.28906 26.7881C8.86328 26.7881 9.26172 26.4834 9.97656 25.8506L14.0195 22.2529H21.5429C25.0351 22.2529 26.9101 20.3193 26.9101 16.8858V7.90918C26.9101 4.47558 25.0351 2.54199 21.5429 2.54199H6.44922C2.95703 2.54199 1.08203 4.46387 1.08203 7.90918V16.8858C1.08203 20.3311 2.95703 22.2529 6.44922 22.2529H7.01172V25.2998C7.01172 26.2022 7.46875 26.7881 8.28906 26.7881ZM8.76953 24.6436V21.2451C8.76953 20.6123 8.52344 20.3662 7.89062 20.3662H6.44922C4.08203 20.3662 2.96875 19.1592 2.96875 16.874V7.90918C2.96875 5.62402 4.08203 4.42871 6.44922 4.42871H21.5429C23.8984 4.42871 25.0234 5.62402 25.0234 7.90918V16.874C25.0234 19.1592 23.8984 20.3662 21.5429 20.3662H13.9492C13.2929 20.3662 12.9648 20.46 12.5195 20.917L8.76953 24.6436Z" fill="black" fill-opacity="0.85"/>
<path d="M10.1523 17.917C10.5742 17.917 10.8672 17.7178 11.0547 17.167L11.9101 14.6709H16.0937L16.9492 17.167C17.1367 17.7061 17.4297 17.917 17.8632 17.917C18.3789 17.917 18.7187 17.5889 18.7187 17.1084C18.7187 16.9209 18.6836 16.7568 18.5898 16.499L15.3086 7.65138C15.0859 7.042 14.6289 6.72559 13.9961 6.72559C13.3632 6.72559 12.9179 7.042 12.6953 7.65138L9.41407 16.499C9.32032 16.7568 9.28516 16.9209 9.28516 17.0967C9.28516 17.5889 9.62501 17.917 10.1523 17.917ZM12.3789 13.2647L13.9375 8.7295H14.0664L15.625 13.2647H12.3789Z" fill="black" fill-opacity="0.85"/>
</g>
<defs>
<clipPath id="clip0_2340_81079">
<rect width="25.8281" height="25.7461" fill="white" transform="translate(1.08203 1.04199)"/>
</clipPath>
</defs>
</svg>
