<svg width="29" height="29" viewBox="0 0 29 29" fill="none" xmlns="http://www.w3.org/2000/svg">
<g clip-path="url(#clip0_2340_96493)">
<path d="M14.6475 21.5787H26.4131C26.9053 21.5787 27.3154 21.1919 27.3154 20.6997C27.3154 20.1958 26.9053 19.8091 26.4131 19.8091H14.6475C14.1553 19.8091 13.7568 20.1958 13.7568 20.6997C13.7568 21.1919 14.1553 21.5787 14.6475 21.5787Z" fill="currentColor" fill-opacity="0.85"/>
<path d="M6.09277 25.7504C8.84668 25.7504 11.1436 23.4653 11.1436 20.7114C11.1436 17.934 8.84668 15.6372 6.09277 15.6372C3.32715 15.6372 1.04199 17.934 1.04199 20.7114C1.04199 23.4653 3.33887 25.7504 6.09277 25.7504ZM5.49511 23.4184C5.24902 23.4184 5.08496 23.2778 4.90918 23.0903L3.59668 21.4965C3.47949 21.3676 3.44433 21.227 3.44433 21.0395C3.44433 20.6996 3.70215 20.4418 4.01855 20.4418C4.24121 20.4418 4.40527 20.5239 4.55761 20.7348L5.47168 21.895L7.55761 18.5434C7.69824 18.3207 7.87402 18.2036 8.08496 18.2036C8.41308 18.2036 8.69433 18.4614 8.69433 18.7661C8.69433 18.9301 8.64746 19.059 8.54199 19.2348L6.09277 23.0786C5.96387 23.3012 5.75293 23.4184 5.49511 23.4184Z" fill="currentColor" fill-opacity="0.85"/>
<path d="M14.6475 8.03174H26.4131C26.9053 8.03174 27.3154 7.64502 27.3154 7.14112C27.3154 6.64893 26.9053 6.26221 26.4131 6.26221H14.6475C14.1553 6.26221 13.7568 6.64893 13.7568 7.14112C13.7568 7.64502 14.1553 8.03174 14.6475 8.03174Z" fill="currentColor" fill-opacity="0.85"/>
<path d="M6.09277 12.1802C8.84668 12.1802 11.1436 9.89502 11.1436 7.14112C11.1436 4.37549 8.84668 2.07861 6.09277 2.07861C3.32715 2.07861 1.04199 4.37549 1.04199 7.14112C1.04199 9.89502 3.33887 12.1802 6.09277 12.1802ZM5.49511 9.84815C5.24902 9.84815 5.08496 9.71924 4.90918 9.52002L3.59668 7.93799C3.47949 7.80908 3.44433 7.66846 3.44433 7.48096C3.44433 7.14112 3.70215 6.87158 4.01855 6.87158C4.24121 6.87158 4.40527 6.96534 4.55761 7.16455L5.47168 8.32471L7.55761 4.97315C7.69824 4.76221 7.87402 4.64502 8.08496 4.64502C8.41308 4.64502 8.69433 4.90284 8.69433 5.1958C8.69433 5.35987 8.64746 5.50049 8.54199 5.67627L6.09277 9.52002C5.96387 9.73096 5.75293 9.84815 5.49511 9.84815Z" fill="currentColor" fill-opacity="0.85"/>
</g>
<defs>
<clipPath id="clip0_2340_96493">
<rect width="26.2734" height="23.707" fill="white" transform="translate(1.04199 2.04346)"/>
</clipPath>
</defs>
</svg>
