<svg width="29" height="29" viewBox="0 0 29 29" fill="none" xmlns="http://www.w3.org/2000/svg">
<g clip-path="url(#clip0_2340_97841)">
<path d="M19.5341 14.2168C19.5341 13.9238 19.417 13.6543 19.1943 13.4434L9.91308 4.34961C9.70215 4.15039 9.44433 4.04492 9.13965 4.04492C8.54199 4.04492 8.07324 4.50195 8.07324 5.11133C8.07324 5.4043 8.19043 5.67383 8.37793 5.87304L16.9092 14.2168L8.37793 22.5605C8.19043 22.7597 8.07324 23.0176 8.07324 23.3222C8.07324 23.9316 8.54199 24.3887 9.13965 24.3887C9.44433 24.3887 9.70215 24.2832 9.91308 24.0722L19.1943 14.9902C19.417 14.7676 19.5341 14.5097 19.5341 14.2168Z" fill="currentColor" fill-opacity="0.85"/>
</g>
<defs>
<clipPath id="clip0_2340_97841">
<rect width="11.4609" height="20.3555" fill="white" transform="translate(8.07324 4.04492)"/>
</clipPath>
</defs>
</svg>
