<svg width="29" height="29" viewBox="0 0 29 29" fill="none" xmlns="http://www.w3.org/2000/svg">
<g clip-path="url(#clip0_2340_97783)">
<path d="M8.05664 14.2168C8.05664 14.5097 8.16211 14.7676 8.38477 14.9902L17.6777 24.0722C17.877 24.2832 18.1347 24.3887 18.4394 24.3887C19.0488 24.3887 19.5175 23.9316 19.5175 23.3222C19.5175 23.0176 19.3886 22.7597 19.2011 22.5605L10.6699 14.2168L19.2011 5.87304C19.3886 5.67383 19.5175 5.4043 19.5175 5.11133C19.5175 4.50195 19.0488 4.04492 18.4394 4.04492C18.1347 4.04492 17.877 4.15039 17.6777 4.34961L8.38477 13.4434C8.16211 13.6543 8.05664 13.9238 8.05664 14.2168Z" fill="currentColor" fill-opacity="0.85"/>
</g>
<defs>
<clipPath id="clip0_2340_97783">
<rect width="11.4609" height="20.3555" fill="white" transform="translate(8.05664 4.04492)"/>
</clipPath>
</defs>
</svg>
