<svg width="29" height="29" viewBox="0 0 29 29" fill="none" xmlns="http://www.w3.org/2000/svg">
<g clip-path="url(#clip0_2340_97528)">
<path d="M6.76367 24.6495H20.9785C23.4395 24.6495 24.6582 23.4307 24.6582 21.0166V6.70801C24.6582 4.29395 23.4395 3.0752 20.9785 3.0752H6.76367C4.31445 3.0752 3.08398 4.28223 3.08398 6.70801V21.0166C3.08398 23.4424 4.31445 24.6495 6.76367 24.6495ZM6.7871 22.7627C5.61523 22.7627 4.9707 22.1416 4.9707 20.9229V6.80176C4.9707 5.58301 5.61523 4.96192 6.7871 4.96192H20.9551C22.1152 4.96192 22.7715 5.58301 22.7715 6.80176V20.9229C22.7715 22.1416 22.1152 22.7627 20.9551 22.7627H6.7871Z" fill="currentColor" fill-opacity="0.85"/>
<path d="M11.5567 20.2432C12.2598 20.2432 12.6465 19.9151 12.6465 19.4346C12.6465 18.9659 12.3067 18.6612 11.8379 18.6612C11.041 18.6612 10.7481 18.3213 10.7481 17.3487V15.7432C10.7481 14.7002 10.1035 13.9385 9.03711 13.7393V13.962C10.1035 13.7745 10.7481 13.0127 10.7481 11.9697V10.376C10.7481 9.40332 11.041 9.05176 11.8379 9.05176C12.3067 9.05176 12.6465 8.75879 12.6465 8.29004C12.6465 7.80957 12.2598 7.46973 11.5567 7.46973C9.97461 7.46973 9.03711 8.39551 9.03711 10.2119V11.6768C9.03711 12.5205 8.8379 12.7197 8.24024 12.8721C7.25587 13.1299 7.26758 14.583 8.24024 14.8409C8.8379 15.0049 9.03711 15.2041 9.03711 16.0479V17.5127C9.03711 19.3291 9.97461 20.2432 11.5567 20.2432ZM16.2207 20.2432C17.791 20.2432 18.7402 19.3291 18.7402 17.5127V16.0479C18.7402 15.2041 18.9395 15.0049 19.5254 14.8409C20.5098 14.5948 20.5098 13.1182 19.5254 12.8721C18.9395 12.7197 18.7402 12.5205 18.7402 11.6768V10.2119C18.7402 8.39551 17.791 7.46973 16.2207 7.46973C15.5176 7.46973 15.1192 7.80957 15.1192 8.29004C15.1192 8.75879 15.4707 9.05176 15.9395 9.05176C16.7246 9.05176 17.0293 9.40332 17.0293 10.376V11.9697C17.0293 13.0127 17.6738 13.7745 18.7285 13.962V13.7393C17.6738 13.9385 17.0293 14.7002 17.0293 15.7432V17.3487C17.0293 18.3213 16.7246 18.6612 15.9395 18.6612C15.4707 18.6612 15.1192 18.9659 15.1192 19.4346C15.1192 19.9151 15.5176 20.2432 16.2207 20.2432Z" fill="currentColor" fill-opacity="0.85"/>
</g>
<defs>
<clipPath id="clip0_2340_97528">
<rect width="21.5742" height="21.5977" fill="white" transform="translate(3.08398 3.05176)"/>
</clipPath>
</defs>
</svg>
