<svg width="29" height="29" viewBox="0 0 29 29" fill="none" xmlns="http://www.w3.org/2000/svg">
<g clip-path="url(#clip0_2340_97523)">
<path d="M3.08203 14.1573C3.08203 14.837 3.46875 15.3174 4.27734 15.4463C5.73047 15.669 6.30469 16.4073 6.30469 18.294V21.587C6.30469 24.7745 7.75781 26.2745 10.9219 26.2745C11.1094 26.2745 11.3086 26.2393 11.4492 26.1924C11.8125 26.0401 12.0117 25.7471 12.0117 25.3604C12.0117 24.9034 11.8125 24.669 11.4023 24.5635C11.2852 24.5401 11.168 24.5166 11.0273 24.5049C9.05859 24.3643 8.34375 23.5206 8.34375 21.3526V17.462C8.34375 15.4815 7.30078 14.3799 5.47265 14.2041C5.4375 14.2041 5.4375 14.1573 5.47265 14.1573C7.30078 13.9815 8.34375 12.8799 8.34375 10.8994V6.99707C8.34375 4.81738 9.05859 3.99707 11.0273 3.85645C11.2148 3.84473 11.3789 3.82129 11.4961 3.77442C11.8359 3.65723 12.0117 3.39942 12.0117 2.98926C12.0117 2.5791 11.8008 2.29785 11.4023 2.15723C11.2266 2.09863 11.0391 2.0752 10.8047 2.0752C7.74609 2.0752 6.30469 3.59864 6.30469 6.7627V10.0674C6.30469 11.9307 5.73047 12.6807 4.27734 12.9034C3.46875 13.0323 3.08203 13.4893 3.08203 14.1573ZM24.9023 14.1573C24.9023 13.4893 24.5039 13.0323 23.6953 12.9034C22.2539 12.6807 21.6679 11.9307 21.6679 10.0674V6.7627C21.6679 3.59864 20.2265 2.0752 17.1679 2.0752C16.9336 2.0752 16.7578 2.09863 16.582 2.15723C16.1601 2.29785 15.9609 2.5791 15.9609 2.98926C15.9609 3.39942 16.1601 3.64551 16.4882 3.77442C16.6054 3.82129 16.7578 3.84473 16.9453 3.85645C18.9023 3.9502 19.6406 4.81738 19.6406 6.99707V10.8994C19.6406 12.8916 20.6836 14.1573 22.5 14.1573C22.5351 14.1573 22.5351 14.2041 22.5 14.2041C20.6836 14.2041 19.6406 15.4698 19.6406 17.462V21.3526C19.6406 23.5206 18.914 24.3643 16.9453 24.5049C16.8047 24.5166 16.6992 24.5401 16.582 24.5635C16.1718 24.6456 15.9609 24.9034 15.9609 25.3604C15.9609 25.7706 16.1836 26.0752 16.5351 26.1924C16.6758 26.2393 16.8632 26.2745 17.0508 26.2745C20.2148 26.2745 21.6679 24.7745 21.6679 21.587V18.294C21.6679 16.4073 22.2539 15.669 23.6953 15.4463C24.5039 15.3174 24.9023 14.837 24.9023 14.1573Z" fill="currentColor" fill-opacity="0.85"/>
</g>
<defs>
<clipPath id="clip0_2340_97523">
<rect width="21.8203" height="24.2227" fill="white" transform="translate(3.08203 2.05176)"/>
</clipPath>
</defs>
</svg>
