<svg width="28" height="29" viewBox="0 0 28 29" fill="none" xmlns="http://www.w3.org/2000/svg">
<g clip-path="url(#clip0_2340_70408)">
<path d="M2.9458 24.8127H25.3403C25.856 24.8127 26.2895 24.3791 26.2895 23.8635C26.2895 23.3479 25.856 22.926 25.3403 22.926H2.9458C2.43018 22.926 2.0083 23.3479 2.0083 23.8635C2.0083 24.3791 2.43018 24.8127 2.9458 24.8127Z" fill="black" fill-opacity="0.85"/>
<path d="M7.75057 20.0432L11.6412 18.4377C11.9342 18.3205 12.0748 18.2151 12.2506 18.0393L23.4654 6.90646C24.567 5.81662 24.5553 4.53927 23.442 3.41427L20.9811 0.929898C19.8561 -0.183384 18.5787 -0.206821 17.4772 0.883023L6.25057 12.0159C6.07479 12.1799 5.96932 12.3088 5.85213 12.6018L4.2115 16.4924C3.96541 17.0784 4.024 17.6643 4.46932 18.1096L6.13338 19.7854C6.56697 20.219 7.15291 20.301 7.75057 20.0432ZM7.57479 18.2268C7.34041 18.3088 7.16463 18.3088 6.95369 18.0979L6.15682 17.301C5.94588 17.0901 5.94588 16.9026 6.03963 16.6916L7.49276 13.2815L18.6607 2.19552C19.0006 1.87912 19.399 1.85568 19.7154 2.17209L22.1881 4.66818C22.5045 4.99631 22.4811 5.39474 22.1529 5.72287L10.9849 16.8088L7.57479 18.2268ZM3.18026 20.6291H4.59822C4.92635 20.6291 5.06697 20.5705 5.32479 20.3596L6.42635 19.5159L4.73885 17.7932L2.84041 19.7971C2.48885 20.1604 2.66463 20.6291 3.18026 20.6291ZM6.42635 13.2815L11.2193 18.0979L12.3209 17.008L7.52791 12.1799L6.42635 13.2815ZM16.1529 3.63693L20.9459 8.45334L22.0475 7.37521L17.2545 2.54709L16.1529 3.63693Z" fill="black" fill-opacity="0.85"/>
</g>
<defs>
<clipPath id="clip0_2340_70408">
<rect width="24.2812" height="28.0317" fill="white" transform="translate(2.0083 0.0800781)"/>
</clipPath>
</defs>
</svg>
