<svg width="29" height="29" viewBox="0 0 29 29" fill="none" xmlns="http://www.w3.org/2000/svg">
<g clip-path="url(#clip0_2340_96873)">
<path d="M9.00293 22.8418H16.4092C16.96 22.8418 17.3584 22.502 17.3584 21.9512C17.3584 21.4238 16.9717 21.084 16.4209 21.084H13.7959L16.6435 7.84179H19.2685C19.8193 7.84179 20.206 7.50195 20.206 6.95117C20.206 6.42383 19.831 6.08398 19.2802 6.08398H11.8389C11.2881 6.08398 10.9131 6.42383 10.9131 6.95117C10.9131 7.50195 11.2998 7.84179 11.8506 7.84179H14.4756L11.6279 21.084H8.99121C8.44043 21.084 8.06543 21.4238 8.06543 21.9512C8.06543 22.502 8.45215 22.8418 9.00293 22.8418Z" fill="currentColor" fill-opacity="0.85"/>
</g>
<defs>
<clipPath id="clip0_2340_96873">
<rect width="12.1406" height="16.7695" fill="white" transform="translate(8.06543 6.08398)"/>
</clipPath>
</defs>
</svg>
