<svg width="29" height="29" viewBox="0 0 29 29" fill="none" xmlns="http://www.w3.org/2000/svg">
<g clip-path="url(#clip0_2340_96507)">
<path d="M8.67969 21.6963H24.6875C25.2148 21.6963 25.6367 21.2861 25.6367 20.7588C25.6367 20.2197 25.2148 19.8096 24.6875 19.8096H8.67969C8.14063 19.8096 7.73047 20.2197 7.73047 20.7588C7.73047 21.2861 8.14063 21.6963 8.67969 21.6963Z" fill="currentColor" fill-opacity="0.85"/>
<path d="M3.5 22.2353C4.32032 22.2353 4.97656 21.5674 4.97656 20.7588C4.97656 19.9385 4.32032 19.2822 3.5 19.2822C2.67969 19.2822 2.02344 19.9385 2.02344 20.7588C2.02344 21.5674 2.67969 22.2353 3.5 22.2353Z" fill="currentColor" fill-opacity="0.85"/>
<path d="M8.67969 14.6182H24.6875C25.2148 14.6182 25.6367 14.1963 25.6367 13.6689C25.6367 13.1416 25.2148 12.7314 24.6875 12.7314H8.67969C8.14063 12.7314 7.73047 13.1416 7.73047 13.6689C7.73047 14.1963 8.14063 14.6182 8.67969 14.6182Z" fill="currentColor" fill-opacity="0.85"/>
<path d="M3.5 15.1455C4.32032 15.1455 4.97656 14.4893 4.97656 13.6689C4.97656 12.8486 4.32032 12.1924 3.5 12.1924C2.67969 12.1924 2.02344 12.8486 2.02344 13.6689C2.02344 14.4893 2.67969 15.1455 3.5 15.1455Z" fill="currentColor" fill-opacity="0.85"/>
<path d="M8.67969 7.52832H24.6875C25.2148 7.52832 25.6367 7.11816 25.6367 6.59082C25.6367 6.05176 25.2148 5.6416 24.6875 5.6416H8.67969C8.14063 5.6416 7.73047 6.05176 7.73047 6.59082C7.73047 7.11816 8.14063 7.52832 8.67969 7.52832Z" fill="currentColor" fill-opacity="0.85"/>
<path d="M3.5 8.05566C4.32032 8.05566 4.97656 7.39941 4.97656 6.59082C4.97656 5.77051 4.32032 5.11426 3.5 5.11426C2.67969 5.11426 2.02344 5.77051 2.02344 6.59082C2.02344 7.39941 2.67969 8.05566 3.5 8.05566Z" fill="currentColor" fill-opacity="0.85"/>
</g>
<defs>
<clipPath id="clip0_2340_96507">
<rect width="23.6133" height="17.1445" fill="white" transform="translate(2.02344 5.09082)"/>
</clipPath>
</defs>
</svg>
