<svg width="29" height="29" viewBox="0 0 29 29" fill="none" xmlns="http://www.w3.org/2000/svg">
<g clip-path="url(#clip0_2340_96539)">
<path d="M9.57031 22.1108H24.7227C25.25 22.1108 25.6719 21.7006 25.6719 21.1733C25.6719 20.6342 25.25 20.2241 24.7227 20.2241H9.57031C9.03125 20.2241 8.62109 20.6342 8.62109 21.1733C8.62109 21.7006 9.03125 22.1108 9.57031 22.1108Z" fill="currentColor" fill-opacity="0.85"/>
<path d="M3.00781 22.9312L5.09375 21.689C5.45703 21.4663 5.44531 20.9156 5.09375 20.7046L3.00781 19.439C2.53906 19.1578 2.05859 19.2867 2.05859 19.8492V22.521C2.05859 23.0601 2.55078 23.2007 3.00781 22.9312Z" fill="currentColor" fill-opacity="0.85"/>
<path d="M9.57031 15.0327H24.7227C25.25 15.0327 25.6719 14.6108 25.6719 14.0835C25.6719 13.5562 25.25 13.146 24.7227 13.146H9.57031C9.03125 13.146 8.62109 13.5562 8.62109 14.0835C8.62109 14.6108 9.03125 15.0327 9.57031 15.0327Z" fill="currentColor" fill-opacity="0.85"/>
<path d="M3.00781 15.8295L5.09375 14.5873C5.45703 14.3647 5.44531 13.8139 5.09375 13.603L3.00781 12.3373C2.53906 12.0561 2.05859 12.1967 2.05859 12.7475V15.4194C2.05859 15.9584 2.55078 16.0991 3.00781 15.8295Z" fill="currentColor" fill-opacity="0.85"/>
<path d="M9.57031 7.94281H24.7227C25.25 7.94281 25.6719 7.53265 25.6719 7.00531C25.6719 6.46625 25.25 6.05609 24.7227 6.05609H9.57031C9.03125 6.05609 8.62109 6.46625 8.62109 7.00531C8.62109 7.53265 9.03125 7.94281 9.57031 7.94281Z" fill="currentColor" fill-opacity="0.85"/>
<path d="M3.00781 8.76311L5.09375 7.52092C5.45703 7.29827 5.44531 6.74749 5.09375 6.53655L3.00781 5.27093C2.53906 4.97796 2.05859 5.11858 2.05859 5.68108V8.35296C2.05859 8.89202 2.55078 9.03264 3.00781 8.76311Z" fill="currentColor" fill-opacity="0.85"/>
</g>
<defs>
<clipPath id="clip0_2340_96539">
<rect width="23.6133" height="17.9735" fill="white" transform="translate(2.05859 5.09082)"/>
</clipPath>
</defs>
</svg>
