<svg width="29" height="29" viewBox="0 0 29 29" fill="none" xmlns="http://www.w3.org/2000/svg">
<g clip-path="url(#clip0_2340_96559)">
<path d="M9.26172 22.2197H24.7188C25.2461 22.2197 25.668 21.8096 25.668 21.2822C25.668 20.7431 25.2461 20.333 24.7188 20.333H9.26172C8.73438 20.333 8.3125 20.7431 8.3125 21.2822C8.3125 21.8096 8.73438 22.2197 9.26172 22.2197Z" fill="currentColor" fill-opacity="0.85"/>
<path d="M4.10547 23.8369C5.5 23.8369 6.32031 23.2158 6.32031 22.2314C6.32031 21.5869 5.875 21.1416 5.06641 21.0713V21.0361C5.65235 20.9306 6.1211 20.5322 6.1211 19.8525C6.1211 18.9619 5.25391 18.4697 4.09375 18.4697C3.17969 18.4697 2.18359 18.9033 2.18359 19.6767C2.18359 20.0049 2.41797 20.2392 2.78125 20.2392C3.03906 20.2392 3.15625 20.1338 3.32031 19.958C3.58985 19.665 3.80078 19.5713 4.09375 19.5713C4.45703 19.5713 4.72657 19.747 4.72657 20.0986C4.72657 20.4267 4.44531 20.5908 3.96485 20.5908H3.83594C3.50781 20.5908 3.29688 20.7549 3.29688 21.0947C3.29688 21.4111 3.4961 21.5986 3.83594 21.5986H3.98828C4.51563 21.5986 4.79688 21.7744 4.79688 22.1377C4.79688 22.4541 4.50391 22.6885 4.10547 22.6885C3.69531 22.6885 3.40235 22.4541 3.17969 22.2314C3.03906 22.1025 2.92188 22.0088 2.69922 22.0088C2.32422 22.0088 2.05469 22.2314 2.05469 22.5947C2.05469 23.4033 3.15625 23.8369 4.10547 23.8369Z" fill="currentColor" fill-opacity="0.85"/>
<path d="M9.26172 15.1416H24.7188C25.2461 15.1416 25.668 14.7197 25.668 14.1924C25.668 13.665 25.2461 13.2549 24.7188 13.2549H9.26172C8.73438 13.2549 8.3125 13.665 8.3125 14.1924C8.3125 14.7197 8.73438 15.1416 9.26172 15.1416Z" fill="currentColor" fill-opacity="0.85"/>
<path d="M2.72266 16.5361H5.73438C6.05078 16.5361 6.29688 16.3135 6.29688 15.9853C6.29688 15.6338 6.0625 15.4111 5.73438 15.4111H4.0586V15.376L5.01953 14.6025C5.81641 13.9463 6.13281 13.5713 6.13281 12.8799C6.13281 11.9424 5.34766 11.3096 4.08203 11.3096C2.95703 11.3096 2.14844 11.8955 2.14844 12.6455C2.14844 13.0205 2.39453 13.2197 2.79297 13.2197C3.0625 13.2197 3.23828 13.1377 3.40235 12.8682C3.56641 12.5869 3.77735 12.4346 4.10547 12.4346C4.44531 12.4346 4.69141 12.6572 4.69141 12.9854C4.69141 13.2666 4.55078 13.5127 3.94141 13.9932L2.40625 15.2588C2.17188 15.4463 2.07812 15.6572 2.07812 15.915C2.07812 16.2783 2.33594 16.5361 2.72266 16.5361Z" fill="currentColor" fill-opacity="0.85"/>
<path d="M9.26172 8.05176H24.7188C25.2461 8.05176 25.668 7.6416 25.668 7.11426C25.668 6.5752 25.2461 6.16504 24.7188 6.16504H9.26172C8.73438 6.16504 8.3125 6.5752 8.3125 7.11426C8.3125 7.6416 8.73438 8.05176 9.26172 8.05176Z" fill="currentColor" fill-opacity="0.85"/>
<path d="M4.60938 9.46973C5.05469 9.46973 5.3711 9.21191 5.3711 8.68457V4.89941C5.3711 4.40723 5.01953 4.09082 4.50391 4.09082C4.09375 4.09082 3.83594 4.23145 3.54297 4.43066L2.71094 5.00488C2.47656 5.16894 2.34766 5.32129 2.34766 5.56738C2.34766 5.87207 2.58203 6.08301 2.85156 6.08301C3.00391 6.08301 3.07422 6.05957 3.27344 5.91894L3.8125 5.55566H3.83594V8.68457C3.83594 9.21191 4.14063 9.46973 4.60938 9.46973Z" fill="currentColor" fill-opacity="0.85"/>
</g>
<defs>
<clipPath id="clip0_2340_96559">
<rect width="23.6133" height="20.1914" fill="white" transform="translate(2.05469 4.09082)"/>
</clipPath>
</defs>
</svg>
