<svg width="29" height="29" viewBox="0 0 29 29" fill="none" xmlns="http://www.w3.org/2000/svg">
<g clip-path="url(#clip0_2340_97367)">
<path d="M6.38918 21.4146C6.78761 21.8247 7.47902 21.813 7.87746 21.4146L13.8775 15.4028L19.8891 21.4146C20.2876 21.813 20.9673 21.8247 21.3657 21.4146C21.7876 21.0044 21.7759 20.3247 21.3657 19.9263L15.3657 13.9146L21.3657 7.91457C21.7759 7.51613 21.7876 6.82472 21.3657 6.42629C20.9673 6.01613 20.2876 6.02785 19.8891 6.42629L13.8775 12.438L7.87746 6.42629C7.47902 6.02785 6.78761 6.01613 6.38918 6.42629C5.97902 6.82472 5.99074 7.51613 6.38918 7.91457L12.4009 13.9146L6.38918 19.9263C5.99074 20.3247 5.97902 21.0044 6.38918 21.4146Z" fill="currentColor" fill-opacity="0.85"/>
</g>
<defs>
<clipPath id="clip0_2340_97367">
<rect width="15.5918" height="15.6182" fill="white" transform="translate(6.08594 6.09961)"/>
</clipPath>
</defs>
</svg>
