<svg width="29" height="29" viewBox="0 0 29 29" fill="none" xmlns="http://www.w3.org/2000/svg">
<g clip-path="url(#clip0_2340_95341)">
<path d="M15.1746 25.5762C20.1082 25.5762 23.4011 23.8301 23.4011 21.2519C23.4011 18.9433 21.4324 18.4277 21.4324 17.0683C21.4324 15.1933 28.241 14.8183 28.241 10.002C28.241 5.24414 23.3308 2.10352 16.0417 2.10352C6.46753 2.10352 0.010498 6.88477 0.010498 14.0449C0.010498 20.9355 6.13941 25.5762 15.1746 25.5762ZM15.1746 23.5723C7.24097 23.5723 2.01441 19.7519 2.01441 14.0449C2.01441 8.06836 7.56909 4.10743 16.0417 4.10743C22.1941 4.10743 26.2371 6.49805 26.2371 10.002C26.2371 14.0918 19.3816 13.541 19.3816 17.0801C19.3816 19.084 21.3972 19.7168 21.3972 21.0996C21.3972 22.5879 18.948 23.5723 15.1746 23.5723ZM14.2136 20.8066C15.9949 20.8066 17.4597 19.3418 17.4597 17.5488C17.4597 15.7793 15.9949 14.3144 14.2136 14.3144C12.4324 14.3144 10.9675 15.7793 10.9675 17.5488C10.9675 19.3418 12.4324 20.8066 14.2136 20.8066ZM14.2136 19.4473C13.1707 19.4473 12.3269 18.6035 12.3269 17.5488C12.3269 16.3887 13.2175 15.6973 14.1902 15.6855C15.1863 15.6738 16.1003 16.3535 16.1003 17.5488C16.1003 18.6035 15.2683 19.4473 14.2136 19.4473Z" fill="currentColor" fill-opacity="0.85"/>
<path d="M5.92846 15.6504C7.00658 15.6504 7.87377 14.7597 7.87377 13.6816C7.87377 12.6035 7.00658 11.7363 5.92846 11.7363C4.86205 11.7363 3.98315 12.6035 3.98315 13.6816C3.98315 14.7597 4.86205 15.6504 5.92846 15.6504Z" fill="currentColor" fill-opacity="0.85"/>
<path d="M10.2058 11.9004C11.5652 11.9004 12.6667 10.8105 12.6667 9.42773C12.6667 8.08007 11.5535 7.00195 10.2058 7.00195C8.83471 7.00195 7.73315 8.08007 7.73315 9.42773C7.73315 10.8105 8.83471 11.9004 10.2058 11.9004Z" fill="currentColor" fill-opacity="0.85"/>
<path d="M16.1472 10.002C17.2488 10.002 18.116 9.12304 18.116 8.02148C18.116 6.93163 17.2488 6.05273 16.1472 6.05273C15.0691 6.05273 14.1667 6.93163 14.1667 8.02148C14.1667 9.12304 15.0691 10.002 16.1472 10.002Z" fill="currentColor" fill-opacity="0.85"/>
<path d="M21.5027 10.752C22.3816 10.752 23.0847 10.0371 23.0847 9.14648C23.0847 8.26757 22.3816 7.55273 21.5027 7.55273C20.6121 7.55273 19.8855 8.26757 19.8855 9.14648C19.8855 10.0371 20.6121 10.752 21.5027 10.752Z" fill="currentColor" fill-opacity="0.85"/>
</g>
<defs>
<clipPath id="clip0_2340_95341">
<rect width="28.2305" height="23.707" fill="white" transform="translate(0.010498 2.10352)"/>
</clipPath>
</defs>
</svg>
