<svg width="28" height="29" viewBox="0 0 28 29" fill="none" xmlns="http://www.w3.org/2000/svg">
<g clip-path="url(#clip0_2340_82580)">
<path d="M1.36776 23.4942C3.54745 26.4356 8.11777 27.2324 10.9537 25.1231C13.3794 23.3301 13.8951 20.5059 12.1021 18.1387C10.4264 15.8887 7.94198 15.3379 5.99667 16.8027C4.16855 18.1738 4.81308 20.1426 3.79355 20.9043C2.90292 21.5723 2.07089 21.1973 1.42636 21.6895C0.957606 22.0645 0.805263 22.7442 1.36776 23.4942ZM3.75839 23.3067C3.60605 23.1426 3.61777 22.9785 3.72323 22.8731C3.8873 22.7207 4.54355 22.6738 5.04745 22.1699C6.18417 21.0449 5.79745 19.3926 7.10995 18.3731C8.1998 17.5059 9.71152 17.8223 10.731 19.1348C11.8794 20.6231 11.481 22.4395 9.89902 23.6582C8.12948 25.0527 5.39902 25.041 3.75839 23.3067ZM12.8287 20.7051C14.0943 20.5645 15.1607 19.9317 16.356 18.7363C20.1177 14.9863 25.8599 6.58401 26.3638 5.88088C27.8404 3.8301 25.3091 1.32229 23.2466 2.7637C22.5552 3.25588 14.1412 8.98635 10.3912 12.7715C9.21933 13.9551 8.5748 15.0098 8.42245 16.252L10.2623 16.7559C10.2857 15.9004 10.7428 15.0684 11.7154 14.1074C15.4302 10.4395 23.6451 4.80276 24.149 4.42776C24.5474 4.13479 24.9927 4.55666 24.688 4.99026C24.3833 5.43557 18.6763 13.7559 15.0201 17.4121C14.0591 18.3731 13.3208 18.7598 12.5122 18.8535L12.8287 20.7051ZM14.9029 17.7637L16.4029 17.377C16.2388 15.1387 14.0474 12.9121 11.8443 12.7246L11.3404 14.2246C12.8404 14.1895 14.9029 16.252 14.9029 17.7637Z" fill="currentColor" fill-opacity="0.85"/>
</g>
<defs>
<clipPath id="clip0_2340_82580">
<rect width="25.799" height="24.2071" fill="white" transform="translate(1.00635 2.10352)"/>
</clipPath>
</defs>
</svg>
