<svg width="28" height="29" viewBox="0 0 28 29" fill="none" xmlns="http://www.w3.org/2000/svg">
<g clip-path="url(#clip0_2340_82570)">
<path d="M3.48031 26.5133C5.43734 28.4704 7.7225 28.4938 9.64437 26.5719C11.0623 25.154 12.5506 21.8141 13.6522 20.5016L16.1483 23.0094C17.0623 23.9352 18.1639 23.9352 19.0545 23.0446L20.5662 21.5211C21.4569 20.6188 21.4569 19.5524 20.5311 18.6266L11.3787 9.46254C10.453 8.53676 9.37484 8.52504 8.4725 9.42738L6.96078 10.9508C6.07015 11.8415 6.05844 12.9313 6.98422 13.8571L9.49203 16.3532C8.19125 17.4547 4.8514 18.9313 3.43344 20.3493C1.51156 22.2711 1.52328 24.568 3.48031 26.5133ZM8.58969 11.9938L9.5389 11.068C9.84359 10.7633 10.1717 10.7516 10.4764 11.0563L18.9491 19.5172C19.242 19.8219 19.242 20.15 18.9256 20.4665L18.0116 21.3922C17.7069 21.7204 17.3553 21.7321 17.0506 21.404L14.2498 18.5915C13.8162 18.1579 13.2537 18.2047 12.7616 18.6852C11.8475 19.5875 10.242 23.443 8.37875 25.2946C7.25375 26.4313 5.89437 26.4313 4.7225 25.2711C3.57406 24.111 3.56234 22.7399 4.69906 21.6149C6.56234 19.7633 10.4178 18.1579 11.3201 17.2438C11.7889 16.7399 11.8475 16.1774 11.4139 15.7555L8.58969 12.943C8.285 12.6383 8.285 12.2985 8.58969 11.9938ZM6.51547 24.9547C7.31234 24.9547 7.95687 24.2985 7.95687 23.5016C7.95687 22.7047 7.31234 22.0602 6.51547 22.0602C5.71859 22.0602 5.06234 22.7047 5.06234 23.5016C5.06234 24.2985 5.71859 24.9547 6.51547 24.9547ZM20.4022 19.7868L25.9686 14.2204C27.2694 12.9196 27.2459 11.361 25.91 10.025L16.7108 0.814107C15.4803 -0.416362 13.3475 0.0641069 12.9139 1.97427C11.8241 6.70864 11.7772 7.27113 9.98422 9.77895L11.3319 11.1266C13.3827 8.44301 13.535 7.13052 14.66 2.94692C14.8123 2.34927 15.3045 2.19692 15.703 2.58364L24.4803 11.3493C25.0194 11.8883 25.0194 12.5446 24.5155 13.0485L19.0897 18.4743L20.4022 19.7868ZM18.5506 13.1071C19.1717 13.7282 22.5936 11.8297 23.7772 10.3415L21.1991 7.77504C20.9764 9.84927 19.8983 11.3493 18.5858 12.6618C18.4334 12.8141 18.4452 13.0016 18.5506 13.1071Z" fill="currentColor" fill-opacity="0.85"/>
</g>
<defs>
<clipPath id="clip0_2340_82570">
<rect width="24.9261" height="27.8939" fill="white" transform="translate(2.0022 0.103516)"/>
</clipPath>
</defs>
</svg>
