<svg xmlns="http://www.w3.org/2000/svg" width="29" height="29" viewBox="0 0 29 29" fill="none">
<g clip-path="url(#clip0_2340_99352)">
<path d="M10.0596 24.6386C10.6924 24.6386 11.1025 24.2168 11.1025 23.6074C11.1025 23.3027 10.9971 23.08 10.8213 22.8925L7.43457 19.5996L4.54004 17.1152L4.3291 17.6542L7.96191 17.8183H22.9268C25.6572 17.8183 26.794 16.5644 26.794 13.916V6.99024C26.794 4.25977 25.6572 3.12305 22.9268 3.12305H16.3643C15.7197 3.12305 15.2979 3.5918 15.2979 4.16602C15.2979 4.74024 15.7197 5.20899 16.3643 5.20899H22.9268C24.169 5.20899 24.6963 5.74805 24.6963 6.99024V13.916C24.6963 15.1933 24.169 15.7324 22.9268 15.7324H7.96191L4.3291 15.8847L4.54004 16.4238L7.43457 13.9511L10.8213 10.6582C10.9971 10.4707 11.1025 10.2363 11.1025 9.93164C11.1025 9.33399 10.6924 8.90039 10.0596 8.90039C9.81347 8.90039 9.50879 9.0293 9.30957 9.22852L2.41894 15.9902C2.18457 16.2128 2.06738 16.4824 2.06738 16.7753C2.06738 17.0566 2.18457 17.3378 2.41894 17.5605L9.30957 24.3222C9.50879 24.5214 9.81347 24.6386 10.0596 24.6386Z" fill="currentColor" fill-opacity="0.85"/>
</g>
<defs>
<clipPath id="clip0_2340_99352">
<rect width="24.7266" height="22.6523" fill="white" transform="translate(2.06738 3.12305)"/>
</clipPath>
</defs>
</svg>