<svg xmlns="http://www.w3.org/2000/svg" width="29" height="29" viewBox="0 0 29 29" fill="none">
<g clip-path="url(#clip0_2340_75222)">
<g clip-path="url(#clip1_2340_75222)">
<path d="M13.2046 5.8374C13.3569 5.8374 13.439 5.74365 13.4624 5.60303C13.814 3.70459 13.7788 3.61084 15.8179 3.24756C15.9585 3.2124 16.0522 3.13037 16.0522 2.97803C16.0522 2.8374 15.9585 2.74365 15.8179 2.72021C13.7788 2.35693 13.814 2.26318 13.4624 0.364746C13.439 0.224121 13.3569 0.130371 13.2046 0.130371C13.0522 0.130371 12.9702 0.224121 12.9468 0.364746C12.5952 2.26318 12.6304 2.35693 10.5913 2.72021C10.439 2.74365 10.3569 2.8374 10.3569 2.97803C10.3569 3.13037 10.439 3.2124 10.5913 3.24756C12.6304 3.61084 12.5952 3.70459 12.9468 5.60303C12.9702 5.74365 13.0522 5.8374 13.2046 5.8374Z" fill="currentColor" fill-opacity="0.85"/>
<path d="M7.53272 13.8999C7.75538 13.8999 7.90772 13.7476 7.93116 13.5366C8.35303 10.4077 8.4585 10.4077 11.6929 9.78662C11.8921 9.75146 12.0444 9.61084 12.0444 9.38818C12.0444 9.17725 11.8921 9.0249 11.6929 9.00146C8.4585 8.54443 8.34131 8.43896 7.93116 5.26318C7.90772 5.04053 7.75538 4.88818 7.53272 4.88818C7.32178 4.88818 7.16944 5.04053 7.13428 5.2749C6.75928 8.40381 6.5835 8.39209 3.37256 9.00146C3.17334 9.03662 3.021 9.17725 3.021 9.38818C3.021 9.62256 3.17334 9.75146 3.41943 9.78662C6.60694 10.3023 6.75928 10.3843 7.13428 13.5132C7.16944 13.7476 7.32178 13.8999 7.53272 13.8999Z" fill="currentColor" fill-opacity="0.85"/>
<path d="M15.478 26.8609C15.7827 26.8609 16.0054 26.6382 16.064 26.3218C16.896 19.9116 17.7983 18.9273 24.1499 18.2242C24.478 18.189 24.7007 17.9546 24.7007 17.6382C24.7007 17.3335 24.478 17.0992 24.1499 17.064C17.7983 16.3609 16.896 15.3765 16.064 8.95459C16.0054 8.63818 15.7827 8.42725 15.478 8.42725C15.1733 8.42725 14.9507 8.63818 14.9038 8.95459C14.0718 15.3765 13.1577 16.3609 6.81787 17.064C6.47802 17.0992 6.25537 17.3335 6.25537 17.6382C6.25537 17.9546 6.47802 18.189 6.81787 18.2242C13.146 19.0562 14.0249 19.9116 14.9038 26.3218C14.9507 26.6382 15.1733 26.8609 15.478 26.8609Z" fill="currentColor" fill-opacity="0.85"/>
</g>
</g>
<defs>
<clipPath id="clip0_2340_75222">
<rect width="28" height="28" fill="white" transform="translate(0.0209961 0.130371)"/>
</clipPath>
<clipPath id="clip1_2340_75222">
<rect width="21.6797" height="28.8867" fill="white" transform="translate(3.021 0.130371)"/>
</clipPath>
</defs>
</svg>