<svg width="29" height="29" viewBox="0 0 29 29" fill="none" xmlns="http://www.w3.org/2000/svg">
<g clip-path="url(#clip0_2340_77765)">
<path d="M5.75293 21.2812H17.5185C19.956 21.2812 21.1865 20.0625 21.1865 17.6484V5.78906C21.1865 3.375 19.956 2.15625 17.5185 2.15625H5.75293C3.29199 2.15625 2.07324 3.375 2.07324 5.78906V17.6484C2.07324 20.0625 3.29199 21.2812 5.75293 21.2812ZM5.77636 19.3945C4.60449 19.3945 3.95996 18.7617 3.95996 17.543V5.89453C3.95996 4.67578 4.60449 4.04297 5.77636 4.04297H17.4834C18.6435 4.04297 19.2998 4.67578 19.2998 5.89453V17.543C19.2998 18.7617 18.6435 19.3945 17.4834 19.3945H5.77636Z" fill="currentColor" fill-opacity="0.85"/>
<path d="M11.4365 26.707H23.2021C25.6396 26.707 26.8701 25.4883 26.8701 23.0742V11.2148C26.8701 8.80078 25.6396 7.58203 23.2021 7.58203H11.4365C8.97559 7.58203 7.75684 8.78906 7.75684 11.2148V23.0742C7.75684 25.4883 8.97559 26.707 11.4365 26.707Z" fill="white"/>
<path d="M11.4365 26.707H23.2021C25.6396 26.707 26.8701 25.4883 26.8701 23.0742V11.2148C26.8701 8.80078 25.6396 7.58203 23.2021 7.58203H11.4365C8.97559 7.58203 7.75684 8.78906 7.75684 11.2148V23.0742C7.75684 25.4883 8.97559 26.707 11.4365 26.707ZM11.46 24.8203C10.2998 24.8203 9.64356 24.1875 9.64356 22.9687V11.3203C9.64356 10.1016 10.2998 9.46875 11.46 9.46875H23.167C24.3271 9.46875 24.9834 10.1016 24.9834 11.3203V22.9687C24.9834 24.1875 24.3271 24.8203 23.167 24.8203H11.46Z" fill="currentColor" fill-opacity="0.85"/>
</g>
<defs>
<clipPath id="clip0_2340_77765">
<rect width="24.7969" height="24.5742" fill="white" transform="translate(2.07324 2.13281)"/>
</clipPath>
</defs>
</svg>
