	<svg xmlns="http://www.w3.org/2000/svg" width="29" height="29" viewBox="0 0 29 29" fill="none">
		<g clip-path="url(#clip0_2340_76303)">
			<path
				d="M14.0371 26.0419C20.5762 26.0419 25.9902 20.6162 25.9902 14.0888C25.9902 7.5498 20.5645 2.13574 14.0254 2.13574C7.49804 2.13574 2.08398 7.5498 2.08398 14.0888C2.08398 20.6162 7.50976 26.0419 14.0371 26.0419ZM14.0371 24.0498C8.50586 24.0498 4.08789 19.6201 4.08789 14.0888C4.08789 8.55762 8.49414 4.12793 14.0254 4.12793C19.5567 4.12793 23.9981 8.55762 23.9981 14.0888C23.9981 19.6201 19.5684 24.0498 14.0371 24.0498Z"
				fill="currentColor"
				fill-opacity="0.85"
			/>
			<path
				d="M10.9316 18.3545H17.1192C17.8574 18.3545 18.291 17.9209 18.291 17.206V10.9717C18.291 10.2451 17.8574 9.82324 17.1192 9.82324H10.9316C10.2051 9.82324 9.75977 10.2451 9.75977 10.9717V17.206C9.75977 17.9209 10.2051 18.3545 10.9316 18.3545Z"
				fill="currentColor"
				fill-opacity="0.85"
			/>
		</g>
		<defs>
			<clipPath id="clip0_2340_76303">
				<rect width="23.9062" height="23.918" fill="white" transform="translate(2.08398 2.13574)" />
			</clipPath>
		</defs>
	</svg>