	<svg width="29" height="29" viewBox="0 0 29 29" fill="none" xmlns="http://www.w3.org/2000/svg">
		<g clip-path="url(#clip0_2340_76309)">
			<path
				d="M14.039 26.0419C20.5781 26.0419 25.9921 20.6162 25.9921 14.0888C25.9921 7.5498 20.5664 2.13574 14.0273 2.13574C7.5 2.13574 2.08594 7.5498 2.08594 14.0888C2.08594 20.6162 7.51172 26.0419 14.039 26.0419Z"
				fill="currentColor"
				fill-opacity="0.85"
			/>
			<path
				d="M10.8516 18.4834C10.1016 18.4834 9.64453 18.038 9.64453 17.2998V10.8779C9.64453 10.1279 10.1016 9.69434 10.8516 9.69434H17.2265C17.9882 9.69434 18.4336 10.1279 18.4336 10.8779V17.2998C18.4336 18.038 17.9882 18.4834 17.2265 18.4834H10.8516Z"
				fill="white"
			/>
		</g>
		<defs>
			<clipPath id="clip0_2340_76309">
				<rect width="23.9062" height="23.918" fill="white" transform="translate(2.08594 2.13574)" />
			</clipPath>
		</defs>
	</svg>