<svg width="28" height="29" viewBox="0 0 28 29" fill="none" xmlns="http://www.w3.org/2000/svg">
<g clip-path="url(#clip0_2340_96884)">
<path d="M13.6743 22.5039C17.5649 22.5039 20.061 20.5 20.061 17.4414C20.061 15.0039 18.5727 13.7148 15.104 12.8945L13.1938 12.4375C10.8149 11.8633 9.80713 11.1367 9.80713 9.83594C9.80713 8.19531 11.4243 7.03516 13.6626 7.03516C15.6782 7.03516 17.1196 7.94922 17.6938 9.56641C17.8813 10.0117 18.1625 10.2227 18.6313 10.2227C19.2407 10.2227 19.6157 9.8711 19.6157 9.28516C19.6157 9.10938 19.5922 8.92188 19.5454 8.7461C19.018 6.61328 16.6743 5.13672 13.6626 5.13672C10.1353 5.13672 7.59229 7.15234 7.59229 9.98828C7.59229 12.2969 9.04541 13.6445 12.2329 14.3945L14.3891 14.9102C16.8266 15.4961 17.8461 16.2929 17.8461 17.6992C17.8461 19.3867 16.1235 20.6172 13.6743 20.6172C11.5063 20.6172 9.87744 19.6211 9.27979 17.957C9.06885 17.4531 8.81104 17.2305 8.31885 17.2305C7.68604 17.2305 7.29932 17.6172 7.29932 18.2265C7.29932 18.4375 7.33447 18.6601 7.39307 18.8828C8.01416 21.0976 10.4517 22.5039 13.6743 22.5039Z" fill="currentColor" fill-opacity="0.85"/>
<path d="M4.48682 14.1367H22.8735C23.143 14.1367 23.354 13.9258 23.354 13.6563C23.354 13.3867 23.143 13.1758 22.8735 13.1758H4.48682C4.21729 13.1758 4.00635 13.3867 4.00635 13.6563C4.00635 13.9258 4.21729 14.1367 4.48682 14.1367Z" fill="currentColor" fill-opacity="0.85"/>
</g>
<defs>
<clipPath id="clip0_2340_96884">
<rect width="19.3477" height="17.3789" fill="white" transform="translate(4.00635 5.13672)"/>
</clipPath>
</defs>
</svg>
