<svg width="29" height="29" viewBox="0 0 29 29" fill="none" xmlns="http://www.w3.org/2000/svg">
<g clip-path="url(#clip0_2340_96684)">
<path d="M2.90625 5.91113H24.7382C25.2304 5.91113 25.6406 5.52441 25.6406 5.02051C25.6406 4.52832 25.2304 4.1416 24.7382 4.1416H2.90625C2.41406 4.1416 2.02734 4.52832 2.02734 5.02051C2.02734 5.52441 2.41406 5.91113 2.90625 5.91113ZM7.24218 12.0518H20.414C20.9062 12.0518 21.3046 11.665 21.3046 11.1611C21.3046 10.6689 20.9062 10.2822 20.414 10.2822H7.24218C6.73828 10.2822 6.35156 10.6689 6.35156 11.1611C6.35156 11.665 6.73828 12.0518 7.24218 12.0518ZM2.90625 18.1924H24.7382C25.2304 18.1924 25.6406 17.7939 25.6406 17.3018C25.6406 16.8096 25.2304 16.4228 24.7382 16.4228H2.90625C2.41406 16.4228 2.02734 16.8096 2.02734 17.3018C2.02734 17.7939 2.41406 18.1924 2.90625 18.1924ZM7.24218 24.3213H20.414C20.9062 24.3213 21.3046 23.9346 21.3046 23.4424C21.3046 22.9502 20.9062 22.5518 20.414 22.5518H7.24218C6.73828 22.5518 6.35156 22.9502 6.35156 23.4424C6.35156 23.9346 6.73828 24.3213 7.24218 24.3213Z" fill="currentColor" fill-opacity="0.85"/>
</g>
<defs>
<clipPath id="clip0_2340_96684">
<rect width="23.6133" height="20.2617" fill="white" transform="translate(2.02734 4.1416)"/>
</clipPath>
</defs>
</svg>
