<svg width="29" height="29" viewBox="0 0 29 29" fill="none" xmlns="http://www.w3.org/2000/svg">
<g clip-path="url(#clip0_2340_96673)">
<path d="M18.1817 5.92285H24.791C25.2832 5.92285 25.6934 5.53613 25.6934 5.03223C25.6934 4.54004 25.2832 4.15332 24.791 4.15332H18.1817C17.6895 4.15332 17.3028 4.54004 17.3028 5.03223C17.3028 5.53613 17.6895 5.92285 18.1817 5.92285ZM18.1817 12.0635H24.791C25.2832 12.0635 25.6934 11.6768 25.6934 11.1729C25.6934 10.6807 25.2832 10.2939 24.791 10.2939H18.1817C17.6895 10.2939 17.3028 10.6807 17.3028 11.1729C17.3028 11.6768 17.6895 12.0635 18.1817 12.0635ZM2.95898 18.2041H24.791C25.2832 18.2041 25.6934 17.8057 25.6934 17.3135C25.6934 16.8213 25.2832 16.4346 24.791 16.4346H2.95898C2.4668 16.4346 2.08008 16.8213 2.08008 17.3135C2.08008 17.8057 2.4668 18.2041 2.95898 18.2041ZM2.95898 24.333H24.791C25.2832 24.333 25.6934 23.9463 25.6934 23.4541C25.6934 22.9619 25.2832 22.5635 24.791 22.5635H2.95898C2.4668 22.5635 2.08008 22.9619 2.08008 23.4541C2.08008 23.9463 2.4668 24.333 2.95898 24.333Z" fill="currentColor" fill-opacity="0.85"/>
<path d="M5.31446 12.8252C6.80274 12.8252 8.0332 11.8291 8.0332 10.2471C8.0332 8.74707 7.01367 7.76269 5.61914 7.76269C4.64649 7.76269 3.9668 8.27832 3.73242 9.28613L3.91992 9.30957C4.03711 7.23535 5.39649 5.84082 7.3418 5.74707C7.78711 5.72363 8.11524 5.40722 8.11524 4.96191C8.11524 4.42285 7.66992 4.1416 7.0957 4.1416C4.44727 4.1416 2.11523 6.3916 2.11523 9.35644C2.11523 11.4658 3.52149 12.8252 5.31446 12.8252ZM12.4863 12.8252C13.9746 12.8252 15.2168 11.8291 15.2168 10.2471C15.2168 8.74707 14.1973 7.76269 12.791 7.76269C11.8301 7.76269 11.1504 8.27832 10.9043 9.28613L11.0918 9.30957C11.209 7.23535 12.5684 5.8291 14.502 5.74707C14.959 5.72363 15.2989 5.40722 15.2989 4.96191C15.2989 4.42285 14.8653 4.1416 14.2676 4.1416C11.6426 4.1416 9.28711 6.3916 9.28711 9.35644C9.28711 11.4658 10.7051 12.8252 12.4863 12.8252Z" fill="currentColor" fill-opacity="0.85"/>
</g>
<defs>
<clipPath id="clip0_2340_96673">
<rect width="23.6133" height="20.2852" fill="white" transform="translate(2.08008 4.1416)"/>
</clipPath>
</defs>
</svg>
