<svg width="29" height="29" viewBox="0 0 29 29" fill="none" xmlns="http://www.w3.org/2000/svg">
<g clip-path="url(#clip0_2340_96679)">
<path d="M2.9082 5.91113H24.7402C25.2324 5.91113 25.6426 5.52441 25.6426 5.02051C25.6426 4.52832 25.2324 4.1416 24.7402 4.1416H2.9082C2.41602 4.1416 2.0293 4.52832 2.0293 5.02051C2.0293 5.52441 2.41602 5.91113 2.9082 5.91113ZM2.9082 12.0518H16.0918C16.584 12.0518 16.9824 11.665 16.9824 11.1611C16.9824 10.6689 16.584 10.2822 16.0918 10.2822H2.9082C2.41602 10.2822 2.0293 10.6689 2.0293 11.1611C2.0293 11.665 2.41602 12.0518 2.9082 12.0518ZM2.9082 18.1924H24.7402C25.2324 18.1924 25.6426 17.7939 25.6426 17.3018C25.6426 16.8096 25.2324 16.4228 24.7402 16.4228H2.9082C2.41602 16.4228 2.0293 16.8096 2.0293 17.3018C2.0293 17.7939 2.41602 18.1924 2.9082 18.1924ZM2.9082 24.3213H16.0918C16.584 24.3213 16.9824 23.9346 16.9824 23.4424C16.9824 22.9502 16.584 22.5518 16.0918 22.5518H2.9082C2.41602 22.5518 2.0293 22.9502 2.0293 23.4424C2.0293 23.9346 2.41602 24.3213 2.9082 24.3213Z" fill="currentColor" fill-opacity="0.85"/>
</g>
<defs>
<clipPath id="clip0_2340_96679">
<rect width="23.6133" height="20.2617" fill="white" transform="translate(2.0293 4.1416)"/>
</clipPath>
</defs>
</svg>
