<svg width="29" height="29" viewBox="0 0 29 29" fill="none" xmlns="http://www.w3.org/2000/svg">
<g clip-path="url(#clip0_2340_96689)">
<path d="M2.91016 5.91113H24.7421C25.2344 5.91113 25.6446 5.52441 25.6446 5.02051C25.6446 4.52832 25.2344 4.1416 24.7421 4.1416H2.91016C2.41797 4.1416 2.03125 4.52832 2.03125 5.02051C2.03125 5.52441 2.41797 5.91113 2.91016 5.91113ZM2.91016 18.1924H24.7421C25.2344 18.1924 25.6446 17.7939 25.6446 17.3018C25.6446 16.8096 25.2344 16.4228 24.7421 16.4228H2.91016C2.41797 16.4228 2.03125 16.8096 2.03125 17.3018C2.03125 17.7939 2.41797 18.1924 2.91016 18.1924ZM11.5703 12.0518H24.7421C25.2344 12.0518 25.6446 11.665 25.6446 11.1611C25.6446 10.6689 25.2344 10.2822 24.7421 10.2822H11.5703C11.0664 10.2822 10.6797 10.6689 10.6797 11.1611C10.6797 11.665 11.0664 12.0518 11.5703 12.0518ZM11.5703 24.3213H24.7421C25.2344 24.3213 25.6446 23.9346 25.6446 23.4424C25.6446 22.9502 25.2344 22.5518 24.7421 22.5518H11.5703C11.0664 22.5518 10.6797 22.9502 10.6797 23.4424C10.6797 23.9346 11.0664 24.3213 11.5703 24.3213Z" fill="currentColor" fill-opacity="0.85"/>
</g>
<defs>
<clipPath id="clip0_2340_96689">
<rect width="23.6133" height="20.2617" fill="white" transform="translate(2.03125 4.1416)"/>
</clipPath>
</defs>
</svg>
