<svg width="29" height="29" viewBox="0 0 29 29" fill="none" xmlns="http://www.w3.org/2000/svg">
<g clip-path="url(#clip0_2340_70500)">
<path d="M10.915 22.4687C11.3603 22.4687 11.6533 22.1875 11.6416 21.7773L11.2783 9.23828C11.2666 8.82812 10.9736 8.55859 10.5518 8.55859C10.1064 8.55859 9.81348 8.83984 9.8252 9.25L10.1768 21.7773C10.1885 22.1992 10.4814 22.4687 10.915 22.4687ZM14.3838 22.4687C14.8291 22.4687 15.1455 22.1875 15.1455 21.7773V9.25C15.1455 8.83984 14.8291 8.55859 14.3838 8.55859C13.9384 8.55859 13.6338 8.83984 13.6338 9.25V21.7773C13.6338 22.1875 13.9384 22.4687 14.3838 22.4687ZM17.8642 22.4687C18.2861 22.4687 18.5791 22.1992 18.5908 21.7773L18.9423 9.25C18.9541 8.83984 18.6611 8.55859 18.2158 8.55859C17.7939 8.55859 17.5009 8.82812 17.4892 9.25L17.1377 21.7773C17.1259 22.1875 17.4189 22.4687 17.8642 22.4687ZM9.23926 5.5H11.1025V2.99219C11.1025 2.32422 11.5713 1.89062 12.2744 1.89062H16.4697C17.1728 1.89062 17.6416 2.32422 17.6416 2.99219V5.5H19.5048V2.875C19.5048 1.17578 18.4033 0.144531 16.5986 0.144531H12.1455C10.3408 0.144531 9.23926 1.17578 9.23926 2.875V5.5ZM3.91895 6.4375H24.8603C25.3408 6.4375 25.7275 6.02734 25.7275 5.54687C25.7275 5.06641 25.3408 4.66797 24.8603 4.66797H3.91895C3.4502 4.66797 3.04004 5.06641 3.04004 5.54687C3.04004 6.03906 3.4502 6.4375 3.91895 6.4375ZM9.0166 26.2422H19.7627C21.4384 26.2422 22.5634 25.1523 22.6455 23.4765L23.4658 6.21484H21.5791L20.7939 23.2773C20.7705 23.9804 20.2666 24.4726 19.5752 24.4726H9.18066C8.5127 24.4726 8.00879 23.9687 7.97363 23.2773L7.1416 6.21484H5.30176L6.13379 23.4883C6.21582 25.164 7.31738 26.2422 9.0166 26.2422Z" fill="currentColor" fill-opacity="0.85"/>
</g>
<defs>
<clipPath id="clip0_2340_70500">
<rect width="22.6875" height="28.1836" fill="white" transform="translate(3.04004 0.144531)"/>
</clipPath>
</defs>
</svg>
