<svg width="29" height="29" viewBox="0 0 29 29" fill="none" xmlns="http://www.w3.org/2000/svg">
<g clip-path="url(#clip0_2340_96878)">
<path d="M7.76074 26.6973H20.0185C20.4052 26.6973 20.7216 26.4043 20.7216 26.0059C20.7216 25.6074 20.4052 25.3027 20.0185 25.3027H7.76074C7.38574 25.3027 7.06934 25.6074 7.06934 26.0059C7.06934 26.4043 7.38574 26.6973 7.76074 26.6973Z" fill="currentColor" fill-opacity="0.85"/>
<path d="M13.8896 23.0996C18.1084 23.0996 20.7216 20.5684 20.7216 16.8887V6.82226C20.7216 6.16601 20.2881 5.73242 19.6201 5.73242C18.9638 5.73242 18.5537 6.16601 18.5537 6.82226V16.7129C18.5537 19.3262 16.8311 21.1074 13.8896 21.1074C10.96 21.1074 9.23731 19.3262 9.23731 16.7129V6.82226C9.23731 6.16601 8.80372 5.73242 8.13575 5.73242C7.47949 5.73242 7.06934 6.16601 7.06934 6.82226V16.8887C7.06934 20.5684 9.6709 23.0996 13.8896 23.0996Z" fill="currentColor" fill-opacity="0.85"/>
</g>
<defs>
<clipPath id="clip0_2340_96878">
<rect width="13.6523" height="24.5508" fill="white" transform="translate(7.06934 2.14648)"/>
</clipPath>
</defs>
</svg>
