	<svg xmlns="http://www.w3.org/2000/svg" width="28" height="29" viewBox="0 0 28 29" fill="none">
		<g clip-path="url(#clip0_2340_82251)">
			<path
				d="M23.9651 25.0215C24.4573 25.5254 25.3011 25.5254 25.7698 25.0215C26.262 24.5059 26.2503 23.709 25.7698 23.2168L14.637 12.0371C14.1448 11.5449 13.2894 11.5449 12.8206 12.0371C12.3401 12.5527 12.3519 13.3613 12.8206 13.8535L23.9651 25.0215ZM17.1565 16.9707L13.7112 13.5254C13.5003 13.3145 13.4417 13.0801 13.6409 12.8809C13.8167 12.6934 14.0745 12.7402 14.2854 12.9629L17.7308 16.4082L17.1565 16.9707Z"
				fill="black"
				fill-opacity="0.85"
			/>
			<path
				d="M25.9456 14.6504C26.5081 14.6504 26.9769 14.1816 26.9769 13.6309C26.9769 13.0801 26.5081 12.6113 25.9456 12.6113H22.3362C21.7854 12.6113 21.3167 13.0801 21.3167 13.6309C21.3167 14.1816 21.7854 14.6504 22.3362 14.6504H25.9456Z"
				fill="currentColor"
				fill-opacity="0.85"
			/>
			<path
				d="M19.2894 7.39648C18.8909 7.7832 18.8909 8.43945 19.2894 8.83789C19.6761 9.22461 20.344 9.22461 20.7425 8.83789L23.2854 6.2832C23.6839 5.88477 23.6839 5.22851 23.2854 4.83008C22.8987 4.44336 22.2425 4.44336 21.8558 4.83008L19.2894 7.39648Z"
				fill="currentColor"
				fill-opacity="0.85"
			/>
			<path
				d="M15.5159 2.16992C15.5159 1.61914 15.0472 1.15039 14.4847 1.15039C13.9339 1.15039 13.4651 1.61914 13.4651 2.16992V5.7793C13.4651 6.3418 13.9339 6.81055 14.4847 6.81055C15.0472 6.81055 15.5159 6.3418 15.5159 5.7793V2.16992Z"
				fill="currentColor"
				fill-opacity="0.85"
			/>
			<path
				d="M8.23853 8.83795C8.62524 9.22468 9.28149 9.22468 9.67993 8.83795C10.0666 8.43952 10.0666 7.78326 9.67993 7.39654L7.13696 4.84187C6.75024 4.45515 6.09399 4.44342 5.69556 4.83014C5.30884 5.21686 5.30884 5.87311 5.69556 6.27154L8.23853 8.83795Z"
				fill="currentColor"
				fill-opacity="0.85"
			/>
			<path
				d="M3.02368 12.6113C2.4729 12.6113 2.00415 13.0801 2.00415 13.6309C2.00415 14.1816 2.4729 14.6504 3.02368 14.6504H6.65649C7.20727 14.6504 7.67603 14.1816 7.67603 13.6309C7.67603 13.0801 7.20727 12.6113 6.65649 12.6113H3.02368Z"
				fill="currentColor"
				fill-opacity="0.85"
			/>
			<path
				d="M5.68386 20.9785C5.29714 21.3652 5.29714 22.0332 5.67214 22.4199C6.05886 22.8066 6.72683 22.8184 7.12526 22.4316L9.67995 19.877C10.0667 19.4902 10.0667 18.834 9.67995 18.4473C9.30495 18.0488 8.62526 18.0488 8.23855 18.4473L5.68386 20.9785Z"
				fill="currentColor"
				fill-opacity="0.85"
			/>
			<path
				d="M15.5159 21.4942C15.5159 20.9316 15.0472 20.4629 14.4847 20.4629C13.9339 20.4629 13.4651 20.9316 13.4651 21.4942V25.1035C13.4651 25.6543 13.9339 26.1231 14.4847 26.1231C15.0472 26.1231 15.5159 25.6543 15.5159 25.1035V21.4942Z"
				fill="currentColor"
				fill-opacity="0.85"
			/>
		</g>
		<defs>
			<clipPath id="clip0_2340_82251">
				<rect width="24.9727" height="25.0664" fill="white" transform="translate(2.00415 1.15039)" />
			</clipPath>
		</defs>
	</svg>