<?xml version="1.0" encoding="utf-8"?><!DOCTYPE svg PUBLIC "-//W3C//DTD SVG 1.1//EN" "http://www.w3.org/Graphics/SVG/1.1/DTD/svg11.dtd"><svg xmlns="http://www.w3.org/2000/svg" xmlns:xlink="http://www.w3.org/1999/xlink"><defs><svg viewBox="0 0 12000 12000" id="blockquote" xmlns="http://www.w3.org/2000/svg"><g fill="#4f4f4f"><path d="M4587 9914c-182-44-314-174-362-355-58-216-3-519 129-718 98-147 246-256 411-302 101-28 269-31 362-6 187 49 308 177 359 377 13 51 15 95 11 205-6 171-28 261-96 400-105 211-261 341-475 395-94 24-250 26-339 4zm339-253c175-82 295-305 298-556 1-150-17-209-87-279-64-64-114-81-224-74-123 7-225 68-303 179-91 129-134 283-128 449 5 123 27 186 88 245 84 82 227 96 356 36zM6890 9916c-88-23-168-91-213-181-28-56-30-54-47 50-6 39-13 82-16 98l-6 27h-134c-74 0-134-2-134-5s68-410 150-905c83-496 150-905 150-910 0-6 58-10 141-10h141l-6 28c-14 65-105 636-103 639 2 1 19-18 37-43 105-139 290-210 478-184 281 39 424 267 391 625-43 465-332 787-703 784-45 0-101-6-126-13zm265-260c80-36 156-118 204-219 61-126 75-192 76-342 0-115-3-136-23-180-28-60-73-109-127-138-32-18-57-22-130-22-82 0-97 3-156 32-150 74-250 245-279 477-12 99 0 203 31 277 23 52 82 113 127 130 81 32 188 26 277-15zM8306 9915c-140-36-265-133-320-249-98-207-65-538 80-786 53-92 200-236 289-282 196-102 452-111 618-20 104 56 180 157 212 280 19 77 21 228 4 352l-12 90h-974l-6 62c-19 215 76 326 289 336 152 7 271-43 343-143 18-25 35-45 39-45 36 0 242 46 242 54 0 26-65 121-118 174-71 70-162 124-267 159-67 22-102 26-220 29-100 3-157-1-199-11zm632-903c-8-142-84-235-214-262-177-37-400 105-468 298l-15 42h702l-5-78zM1550 5995V2070h280v7850h-280V5995zM3583 9901c-115-39-174-106-194-218-10-53-5-96 60-491 39-238 71-435 71-437 0-3-44-5-98-5h-98l17-107c10-60 18-109 19-110 0-2 45-3 99-3h99l11-62c6-35 18-109 27-165l17-103h139c76 0 138 1 138 3 0 1-11 67-25 147s-25 153-25 163c0 15 13 17 135 17s135 2 135 18c0 18-16 127-26 175l-6 27h-139c-136 0-139 0-144 23-15 68-125 751-125 781 0 90 39 121 151 119l77-1 6 46c3 26 7 76 8 112l3 65-45 12c-71 18-226 15-287-6zM3667 6914c-182-44-314-174-362-355-58-216-3-519 129-718 98-147 246-256 411-302 101-28 269-31 362-6 187 49 308 177 359 377 13 51 15 95 11 205-6 171-28 261-96 400-105 211-261 341-475 395-94 24-250 26-339 4zm339-253c175-82 295-305 298-556 1-150-17-209-87-279-64-64-114-81-224-74-123 7-225 68-303 179-91 129-134 283-128 449 5 123 27 186 88 245 84 82 227 96 356 36zM8297 6914c-182-44-314-174-362-355-58-216-3-519 129-718 98-147 246-256 411-302 101-28 269-31 362-6 187 49 308 177 359 377 13 51 15 95 11 205-6 171-28 261-96 400-105 211-261 341-475 395-94 24-250 26-339 4zm339-253c175-82 295-305 298-556 1-150-17-209-87-279-64-64-114-81-224-74-123 7-225 68-303 179-91 129-134 283-128 449 5 123 27 186 88 245 84 82 227 96 356 36zM9713 6901c-115-39-174-106-194-218-10-53-5-96 60-491 39-238 71-435 71-437 0-3-44-5-98-5h-98l17-107c10-60 18-109 19-110 0-2 45-3 99-3h99l11-62c6-35 18-109 27-165l17-103h139c76 0 138 1 138 3 0 1-11 67-25 147s-25 153-25 163c0 15 13 17 135 17s135 2 135 18c0 18-16 127-26 175l-6 27h-139c-136 0-139 0-144 23-15 68-125 751-125 781 0 90 39 121 151 119l77-1 6 46c3 26 7 76 8 112l3 65-45 12c-71 18-226 15-287-6zM4751 6893c0-10 51-319 112-688l113-670 132-3c152-3 140-15 117 118-8 47-15 87-15 89s18-20 39-51c45-62 120-118 201-149 59-23 234-38 257-22 9 7 7 37-9 133l-20 125h-122c-112 0-126 2-183 29-74 34-154 113-184 182-17 40-128 664-155 872l-7 52h-138c-126 0-139-2-138-17zM6370 6905c0-9 220-1329 225-1352 5-22 9-23 135-23 150 0 138-12 115 120-19 110-20 109 13 64 65-88 169-157 282-185 76-19 222-17 292 4 104 31 194 121 224 225s22 200-60 689c-42 249-76 455-76 458s-63 5-140 5h-140l5-22c14-63 145-874 145-902 0-63-28-132-69-169-50-45-100-62-181-60-137 2-251 76-315 206-34 68-40 100-108 510l-71 437h-138c-76 0-138-2-138-5zM4587 3914c-182-44-314-174-362-355-58-216-3-519 129-718 98-147 246-256 411-302 101-28 269-31 362-6 187 49 308 177 359 377 13 51 15 95 11 205-6 171-28 261-96 400-105 211-261 341-475 395-94 24-250 26-339 4zm339-253c175-82 295-305 298-556 1-150-17-209-87-279-64-64-114-81-224-74-123 7-225 68-303 179-91 129-134 283-128 449 5 123 27 186 88 245 84 82 227 96 356 36zM6890 3916c-88-23-168-91-213-181-28-56-30-54-47 50-6 39-13 82-16 98l-6 27h-134c-74 0-134-2-134-5s68-410 150-905c83-496 150-905 150-910 0-6 58-10 141-10h141l-6 28c-14 65-105 636-103 639 2 1 19-18 37-43 105-139 290-210 478-184 281 39 424 267 391 625-43 465-332 787-703 784-45 0-101-6-126-13zm265-260c80-36 156-118 204-219 61-126 75-192 76-342 0-115-3-136-23-180-28-60-73-109-127-138-32-18-57-22-130-22-82 0-97 3-156 32-150 74-250 245-279 477-12 99 0 203 31 277 23 52 82 113 127 130 81 32 188 26 277-15zM8306 3915c-140-36-265-133-320-249-98-207-65-538 80-786 53-92 200-236 289-282 196-102 452-111 618-20 104 56 180 157 212 280 19 77 21 228 4 352l-12 90h-974l-6 62c-19 215 76 326 289 336 152 7 271-43 343-143 18-25 35-45 39-45 36 0 242 46 242 54 0 26-65 121-118 174-71 70-162 124-267 159-67 22-102 26-220 29-100 3-157-1-199-11zm632-903c-8-142-84-235-214-262-177-37-400 105-468 298l-15 42h702l-5-78zM3583 3901c-115-39-174-106-194-218-10-53-5-96 60-491 39-238 71-435 71-437 0-3-44-5-98-5h-98l17-107c10-60 18-109 19-110 0-2 45-3 99-3h99l11-62c6-35 18-109 27-165l17-103h139c76 0 138 1 138 3 0 1-11 67-25 147s-25 153-25 163c0 15 13 17 135 17s135 2 135 18c0 18-16 127-26 175l-6 27h-139c-136 0-139 0-144 23-15 68-125 751-125 781 0 90 39 121 151 119l77-1 6 46c3 26 7 76 8 112l3 65-45 12c-71 18-226 15-287-6z"/></g><g fill="#ccc"><path d="M4587 9914c-182-44-314-174-362-355-58-216-3-519 129-718 98-147 246-256 411-302 101-28 269-31 362-6 187 49 308 177 359 377 13 51 15 95 11 205-6 171-28 261-96 400-105 211-261 341-475 395-94 24-250 26-339 4zm339-253c175-82 295-305 298-556 1-150-17-209-87-279-64-64-114-81-224-74-123 7-225 68-303 179-91 129-134 283-128 449 5 123 27 186 88 245 84 82 227 96 356 36zM6890 9916c-88-23-168-91-213-181-28-56-30-54-47 50-6 39-13 82-16 98l-6 27h-134c-74 0-134-2-134-5s68-410 150-905c83-496 150-905 150-910 0-6 58-10 141-10h141l-6 28c-14 65-105 636-103 639 2 1 19-18 37-43 105-139 290-210 478-184 281 39 424 267 391 625-43 465-332 787-703 784-45 0-101-6-126-13zm265-260c80-36 156-118 204-219 61-126 75-192 76-342 0-115-3-136-23-180-28-60-73-109-127-138-32-18-57-22-130-22-82 0-97 3-156 32-150 74-250 245-279 477-12 99 0 203 31 277 23 52 82 113 127 130 81 32 188 26 277-15zM8306 9915c-140-36-265-133-320-249-98-207-65-538 80-786 53-92 200-236 289-282 196-102 452-111 618-20 104 56 180 157 212 280 19 77 21 228 4 352l-12 90h-974l-6 62c-19 215 76 326 289 336 152 7 271-43 343-143 18-25 35-45 39-45 36 0 242 46 242 54 0 26-65 121-118 174-71 70-162 124-267 159-67 22-102 26-220 29-100 3-157-1-199-11zm632-903c-8-142-84-235-214-262-177-37-400 105-468 298l-15 42h702l-5-78zM3583 9901c-115-39-174-106-194-218-10-53-5-96 60-491 39-238 71-435 71-437 0-3-44-5-98-5h-98l17-107c10-60 18-109 19-110 0-2 45-3 99-3h99l11-62c6-35 18-109 27-165l17-103h139c76 0 138 1 138 3 0 1-11 67-25 147s-25 153-25 163c0 15 13 17 135 17s135 2 135 18c0 18-16 127-26 175l-6 27h-139c-136 0-139 0-144 23-15 68-125 751-125 781 0 90 39 121 151 119l77-1 6 46c3 26 7 76 8 112l3 65-45 12c-71 18-226 15-287-6zM3667 6914c-182-44-314-174-362-355-58-216-3-519 129-718 98-147 246-256 411-302 101-28 269-31 362-6 187 49 308 177 359 377 13 51 15 95 11 205-6 171-28 261-96 400-105 211-261 341-475 395-94 24-250 26-339 4zm339-253c175-82 295-305 298-556 1-150-17-209-87-279-64-64-114-81-224-74-123 7-225 68-303 179-91 129-134 283-128 449 5 123 27 186 88 245 84 82 227 96 356 36zM8297 6914c-182-44-314-174-362-355-58-216-3-519 129-718 98-147 246-256 411-302 101-28 269-31 362-6 187 49 308 177 359 377 13 51 15 95 11 205-6 171-28 261-96 400-105 211-261 341-475 395-94 24-250 26-339 4zm339-253c175-82 295-305 298-556 1-150-17-209-87-279-64-64-114-81-224-74-123 7-225 68-303 179-91 129-134 283-128 449 5 123 27 186 88 245 84 82 227 96 356 36zM9713 6901c-115-39-174-106-194-218-10-53-5-96 60-491 39-238 71-435 71-437 0-3-44-5-98-5h-98l17-107c10-60 18-109 19-110 0-2 45-3 99-3h99l11-62c6-35 18-109 27-165l17-103h139c76 0 138 1 138 3 0 1-11 67-25 147s-25 153-25 163c0 15 13 17 135 17s135 2 135 18c0 18-16 127-26 175l-6 27h-139c-136 0-139 0-144 23-15 68-125 751-125 781 0 90 39 121 151 119l77-1 6 46c3 26 7 76 8 112l3 65-45 12c-71 18-226 15-287-6zM4751 6893c0-10 51-319 112-688l113-670 132-3c152-3 140-15 117 118-8 47-15 87-15 89s18-20 39-51c45-62 120-118 201-149 59-23 234-38 257-22 9 7 7 37-9 133l-20 125h-122c-112 0-126 2-183 29-74 34-154 113-184 182-17 40-128 664-155 872l-7 52h-138c-126 0-139-2-138-17zM6370 6905c0-9 220-1329 225-1352 5-22 9-23 135-23 150 0 138-12 115 120-19 110-20 109 13 64 65-88 169-157 282-185 76-19 222-17 292 4 104 31 194 121 224 225s22 200-60 689c-42 249-76 455-76 458s-63 5-140 5h-140l5-22c14-63 145-874 145-902 0-63-28-132-69-169-50-45-100-62-181-60-137 2-251 76-315 206-34 68-40 100-108 510l-71 437h-138c-76 0-138-2-138-5zM4587 3914c-182-44-314-174-362-355-58-216-3-519 129-718 98-147 246-256 411-302 101-28 269-31 362-6 187 49 308 177 359 377 13 51 15 95 11 205-6 171-28 261-96 400-105 211-261 341-475 395-94 24-250 26-339 4zm339-253c175-82 295-305 298-556 1-150-17-209-87-279-64-64-114-81-224-74-123 7-225 68-303 179-91 129-134 283-128 449 5 123 27 186 88 245 84 82 227 96 356 36zM6890 3916c-88-23-168-91-213-181-28-56-30-54-47 50-6 39-13 82-16 98l-6 27h-134c-74 0-134-2-134-5s68-410 150-905c83-496 150-905 150-910 0-6 58-10 141-10h141l-6 28c-14 65-105 636-103 639 2 1 19-18 37-43 105-139 290-210 478-184 281 39 424 267 391 625-43 465-332 787-703 784-45 0-101-6-126-13zm265-260c80-36 156-118 204-219 61-126 75-192 76-342 0-115-3-136-23-180-28-60-73-109-127-138-32-18-57-22-130-22-82 0-97 3-156 32-150 74-250 245-279 477-12 99 0 203 31 277 23 52 82 113 127 130 81 32 188 26 277-15zM8306 3915c-140-36-265-133-320-249-98-207-65-538 80-786 53-92 200-236 289-282 196-102 452-111 618-20 104 56 180 157 212 280 19 77 21 228 4 352l-12 90h-974l-6 62c-19 215 76 326 289 336 152 7 271-43 343-143 18-25 35-45 39-45 36 0 242 46 242 54 0 26-65 121-118 174-71 70-162 124-267 159-67 22-102 26-220 29-100 3-157-1-199-11zm632-903c-8-142-84-235-214-262-177-37-400 105-468 298l-15 42h702l-5-78zM3583 3901c-115-39-174-106-194-218-10-53-5-96 60-491 39-238 71-435 71-437 0-3-44-5-98-5h-98l17-107c10-60 18-109 19-110 0-2 45-3 99-3h99l11-62c6-35 18-109 27-165l17-103h139c76 0 138 1 138 3 0 1-11 67-25 147s-25 153-25 163c0 15 13 17 135 17s135 2 135 18c0 18-16 127-26 175l-6 27h-139c-136 0-139 0-144 23-15 68-125 751-125 781 0 90 39 121 151 119l77-1 6 46c3 26 7 76 8 112l3 65-45 12c-71 18-226 15-287-6z"/></g></svg><svg version="1.0" viewBox="0 0 12000 12000" id="code" xmlns="http://www.w3.org/2000/svg"><g fill="#e06c75"><path d="M8810 11320v-110h410v-920h-400v-220h690v1140h370v220H8810v-110zM9236 9770c-34-11-82-54-102-92-19-37-18-132 3-175 32-68 131-107 228-89 43 8 103 59 121 103 17 39 18 111 3 150-33 87-149 134-253 103zM10190 2423c1-5 108-165 239-358l239-349-214-317c-118-175-214-320-214-323 0-4 77-5 171-4l171 3 132 227c72 125 134 228 137 228s66-103 140-230l134-230h162c90 0 163 2 163 5s-93 143-207 312c-113 168-206 311-206 318 0 6 106 169 236 363 131 193 237 353 237 356s-78 6-174 6h-173l-159-265c-87-146-162-265-165-265-4 0-78 119-164 265l-158 265h-163c-90 0-164-3-164-7z"/></g><g fill="#d19a66"><path d="M4150 8031v-961h129c142 0 141 0 141 65 0 18 3 45 6 61l5 29 55-53c34-33 84-67 132-90 77-37 78-37 207-37 160 0 215 19 304 101 108 99 162 243 181 475 42 515-163 849-520 849-111 0-225-40-307-106l-33-27v619l-117 13c-65 6-133 15-150 18l-33 5v-961zm688 175c68-35 122-124 147-244 19-89 19-345 0-434-36-174-115-257-241-258-89 0-141 25-221 106l-73 74v637l40 46c46 52 108 85 177 96 57 8 130-2 171-23zM10894 8456c-122-28-226-101-277-194-54-99-57-131-57-569v-403h-300v-220h300v-298l28-6c15-3 70-10 122-16s107-12 123-15l27-4v339h225c256 0 233-10 215 96-6 32-13 74-16 92l-5 32h-419v398c0 393 0 398 23 442 17 35 34 51 72 70 71 35 189 34 295-3 41-15 79-28 83-29 4-2 31 41 60 94 51 95 52 97 32 112-24 19-110 52-185 72-79 22-271 27-346 10zM5710 8330v-110h190v-930h-190v-220l212 2 213 3 24 148 24 148 36-66c100-183 235-265 435-265 77 0 197 18 211 32 2 2-7 109-20 238-14 129-25 243-25 253 0 15-12 17-110 17h-110v-270h-25c-96 0-229 106-298 237-74 142-77 158-77 430v243h280v220h-770v-110zM8760 7755v-685h258l6 40c3 22 9 58 12 80l6 40 55-49c106-94 230-141 377-141 172 0 274 52 333 170 18 36 37 94 43 130 6 37 10 286 10 583v517h-299l-3-517-3-518-25-50c-33-66-71-87-156-87-89 0-169 40-252 126l-62 64v982h-300v-685zM7696 6770c-34-11-82-54-102-92-19-37-18-132 3-175 32-68 131-107 228-89 43 8 103 59 121 103 17 39 18 111 3 150-33 87-149 134-253 103zM10190 2424c0-3 66-103 147-222 82-119 189-278 239-352l91-135-213-317c-118-174-214-319-214-323 0-3 77-4 171-3l171 3 84 145c46 80 105 182 131 228 26 45 50 82 53 82 7 0 22-25 181-297l94-163h163c90 0 162 4 160 8-1 5-88 135-193 290-104 155-198 294-207 310l-18 28 240 358c132 196 240 359 240 361 0 3-78 5-173 5h-173l-159-265c-88-146-163-265-167-265-3 0-77 119-163 265l-158 265h-163c-90 0-164-3-164-6z"/></g><g fill="#98c379"><path d="M1740 11230v-200h-740v-207l254-597c140-329 256-600 259-602 9-9 247 88 247 100 0 7-97 243-216 526s-218 521-221 528c-4 9 41 12 206 12 194 0 211-1 211-17 0-10 7-101 15-203s15-200 15-217v-33h250v470h210v240h-210v400h-280v-200zM4150 8031v-961h129c142 0 141 0 141 65 0 18 3 46 6 62l6 30 52-52c32-32 81-66 131-91l79-39h130c162 0 216 18 307 102 105 98 160 245 180 483 31 378-89 690-304 791-177 82-389 59-517-58l-40-35v628l-122 13c-68 7-135 15-150 18l-28 6v-962zm687 176c112-59 163-201 163-460 0-344-88-490-286-474-80 6-132 36-207 117l-57 61v639l37 41c20 22 55 51 78 64 73 43 201 49 272 12zM1365 8456c-91-18-191-55-260-97-67-40-158-125-153-143 3-14 161-156 173-156 5 0 29 20 55 44 96 89 220 132 364 123 208-11 327-141 314-343-6-92-42-170-96-207-67-47-118-60-260-65l-134-4 7-47c3-25 11-74 16-107l11-61 101-5c115-5 179-27 235-81 93-89 107-242 31-346-65-87-215-129-352-97-82 19-123 40-206 102l-63 47-73-79c-41-43-74-85-75-91 0-18 103-97 180-138 117-61 204-80 370-79 131 0 153 3 225 27 93 32 197 99 244 157 18 22 44 66 59 98 24 51 27 69 27 167 0 103-2 114-32 177-41 88-113 159-201 202l-69 32 73 23c128 40 228 133 269 251 40 115 27 283-31 400-64 128-216 243-379 286-83 21-282 27-370 10zM10920 8460c-160-28-275-118-332-257-23-57-23-64-26-485l-3-428h-299v-220h300v-298l28-6c15-3 72-10 127-16s110-13 123-15l22-5v340h453l-7 48c-3 26-11 75-17 110l-11 62h-418v398c0 393 0 398 23 442 15 32 35 52 67 70 40 22 57 24 140 24 77-1 108-6 165-28 39-15 73-28 78-29 4-1 31 42 60 95 61 114 64 108-68 157-128 46-282 62-405 41zM5710 8330v-110h190v-930h-190v-220l212 2 213 3 24 148 24 148 28-50c103-189 220-269 408-279 87-4 211 9 238 26 8 5 5 69-13 242-13 129-23 243-24 253 0 15-12 17-110 17h-110v-270h-25c-13 0-50 10-82 22-107 40-216 176-274 345-17 50-19 84-19 300v243h281l-3 108-3 107-382 3-383 2v-110zM7270 8325v-115h410v-920h-400v-220h690v1140h370v230H7270v-115zM8767 8433c-4-3-7-312-7-685v-678h258l6 40c3 22 9 58 12 81l6 41 32-30c64-61 151-113 233-138 72-23 96-26 191-23 98 4 114 7 174 37 102 50 156 130 177 262 7 40 11 268 11 583v517h-299l-3-517-3-518-25-50c-33-66-71-87-156-87-89 0-169 40-252 126l-62 64v982h-143c-79 0-147-3-150-7zM7696 6770c-34-11-82-54-102-92-22-42-18-136 9-182 42-74 162-109 250-72 103 43 141 191 72 282-48 63-143 89-229 64zM10767 5456c-112-40-179-167-148-282 46-172 271-233 395-108 67 68 87 183 47 269-50 108-180 161-294 121zM1010 5323v-106l248-251c267-271 361-377 440-499 161-247 141-499-46-584-26-12-65-17-132-17-129 0-185 23-282 113l-73 68-92-71c-51-39-93-76-93-82 0-24 157-160 225-196 96-50 170-68 305-74 393-20 636 214 599 577-15 148-84 294-222 466-70 87-284 306-434 446l-83 77h789l-5 33c-3 17-11 70-17 117l-12 85-558 3-557 2v-107zM10767 4546c-97-35-152-116-152-226 1-137 95-230 234-230 86 0 155 38 199 110 27 47 32 63 32 120 0 81-23 134-79 181-66 57-153 74-234 45zM9401 2730c-383-343-547-668-568-1125-12-279 36-523 148-748 88-177 221-344 414-517l99-89 65 58c119 106 120 81-12 226-193 213-278 346-341 535-45 135-66 282-66 457 0 430 107 688 422 1018l101 106-79 80c-43 43-82 79-86 79-5 0-48-36-97-80zM1130 2315v-115h440v-615c0-338-2-615-5-615s-85 49-183 109c-98 61-184 112-192 116-11 3-33-25-77-97-34-57-59-106-55-110 4-3 125-79 269-167l262-161h271v1540h350v230H1130v-115z"/></g><g fill="#61afef"><path d="M7655 5463c-179-24-337-136-416-298-89-183-111-427-58-655 55-235 213-406 420-455 84-19 267-20 344 0 255 65 404 268 435 593 25 268-44 517-184 657-129 128-327 186-541 158zm242-254c121-59 173-198 173-464 0-248-53-383-175-448-32-17-57-22-125-22-96 0-141 18-196 77-77 81-107 196-106 408 1 220 41 348 134 423 73 59 203 70 295 26zM6000 4915v-525h-310v-220h308l4-177c3-169 4-181 30-236 55-117 168-205 313-242 78-20 296-20 390 0 86 18 195 54 195 64 0 7-79 193-85 199-1 1-36-7-76-18-174-50-359-34-425 35-42 45-54 100-54 249v126h456l-15 110-15 110h-426v1050h-290v-525zM8780 5330v-110h190v-930h-190v-220l212 2 213 3 24 148 24 148 36-66c100-183 235-265 435-265 77 0 197 18 211 32 2 2-7 109-20 238-14 129-25 243-25 253 0 15-12 17-110 17h-110v-270h-25c-96 0-229 106-298 237-74 142-77 158-77 430v243h280v220h-770v-110z"/></g><g fill="#c678dd"><path d="M4471 2459c-116-23-229-105-291-213-139-243-145-678-12-931 45-84 134-182 199-217 85-46 154-61 272-56 93 3 114 7 171 34 36 17 83 46 103 64l37 32V500h28c28 0 183 17 240 26l32 5v1909h-268l-7-75c-4-41-9-75-11-75-1 0-25 21-52 48-112 109-274 154-441 121zm266-234c64-19 121-61 173-126l40-51v-636l-45-47c-112-115-281-129-390-33-94 82-130 223-122 468 5 172 23 248 76 332 59 93 155 127 268 93zM6185 2464c-11-2-45-9-75-15s-92-28-137-50c-192-92-308-281-332-542-39-405 141-721 454-802 78-20 253-20 330 0 189 50 335 204 390 410 20 76 33 230 27 318l-4 67h-899l6 38c39 234 158 345 370 345 102-1 180-22 282-79 34-19 63-34 66-34s33 39 67 87l63 87-34 29c-46 39-180 101-259 122-63 16-274 29-315 19zm369-866c-29-217-112-322-265-335-182-17-312 107-343 330l-7 47h621l-6-42zM7530 1915v-525h-310v-220h308l4-177c3-169 4-181 30-236 55-117 168-205 313-242 78-20 296-20 390 0 86 18 195 54 195 64 0 7-79 193-85 199-1 1-36-7-76-18-174-50-359-34-425 35-42 45-54 100-54 249v126h456l-15 110-15 110h-426v1050h-290v-525z"/></g><g fill="#ccc"><path d="M1740 11230v-200h-740v-105c0-103 1-106 49-217 27-62 106-248 176-413 223-527 287-675 292-675 22 0 243 96 243 106 0 7-16 50-36 96-20 45-73 173-119 283-67 159-257 614-282 673-4 9 41 12 206 12 194 0 211-1 211-17 0-10 7-101 15-203s15-200 15-217v-33h250v470h210v240h-210v400h-280v-200zM6230 11010v-260h-510v-240h510v-520h260v520h1020v-520h260v520h510v240h-510v520h-260v-520H6490v520h-260v-260zM1365 8456c-137-28-216-63-321-142-71-54-106-98-88-112 5-5 43-38 85-75s79-67 83-67c3 0 25 18 48 40 53 50 159 105 235 121 34 6 94 9 142 6 207-13 322-144 308-349-13-188-126-268-379-268-80 0-108-3-108-12 0-7 7-53 15-103 8-49 15-93 15-96 0-4 46-8 103-11 116-5 179-27 235-81 93-89 107-242 31-346-39-52-132-99-214-107-117-12-229 24-343 111l-63 47-74-78c-41-44-74-85-75-91 0-18 104-97 180-138 117-61 204-80 370-79 131 0 153 3 225 27 92 32 195 98 243 157 18 22 45 66 60 97 24 52 27 69 27 168 0 103-2 114-32 177-41 88-113 159-201 202l-69 32 74 23c125 39 230 137 269 253 23 66 25 230 5 303-50 178-212 327-416 381-84 22-282 27-370 10zM10769 5456c-113-40-181-168-150-282 46-172 271-233 395-108 67 68 87 183 47 269-50 107-180 161-292 121zM1010 5323l1-108 257-260c265-267 378-398 451-520 113-189 115-408 4-505-58-51-98-64-203-64-129 0-185 23-282 113l-73 68-92-71c-51-39-93-76-93-82s35-45 79-86c130-125 253-175 451-184 301-15 515 116 587 360 9 31 15 90 15 151-1 180-71 343-234 542-64 79-276 296-425 436l-83 77h789l-5 33c-3 17-11 70-17 117l-12 85-558 3-557 2v-107zM10767 4546c-85-31-140-101-153-197-19-136 91-258 231-258 138-1 235 95 235 230 0 168-157 280-313 225zM9394 2722c-377-338-540-663-561-1117-18-403 98-758 337-1033 112-130 302-312 324-312 6 0 47 34 91 74l80 75-51 53c-362 378-474 631-474 1064s105 687 421 1018l102 107-79 80c-43 43-82 79-86 79-3 0-51-40-104-88zM1130 2315v-115h440v-615c0-338-2-615-5-615s-85 49-183 109c-98 61-184 112-192 116-13 5-62-65-127-181-15-26-46-3 304-218l222-136h271v1540h350v230H1130v-115z"/></g></svg><svg viewBox="0 0 12000 12000" id="details" xmlns="http://www.w3.org/2000/svg"><g fill="#4f4f4f"><path d="M2430 5735c0-1026 1-1865 3-1865 12 0 3189 1858 3189 1865 0 8-3028 1779-3154 1846l-38 19V5735zM7100 6440v-80h3100v160H7100v-80zM7100 5380v-80h2620v160H7100v-80zM7100 4320v-80h4100v160H7100v-80z"/></g><g fill="#ccc"><path d="M7100 6440v-80h3100v160H7100v-80zM7100 5380v-80h2620v160H7100v-80zM7100 4320v-80h4100v160H7100v-80z"/></g></svg><svg viewBox="0 0 12000 12000" id="divider" xmlns="http://www.w3.org/2000/svg"><g fill="#4f4f4f"><path d="M2660 9940v-80h4280v160H2660v-80zM2660 8880v-80h6320v160H2660v-80zM2660 7820v-80h7460v160H2660v-80zM1790 6160v-80h9200v160H1790v-80zM2660 4340v-80h4280v160H2660v-80zM2660 3280v-80h7460v160H2660v-80zM2660 2220v-80h6320v160H2660v-80z"/></g><g fill="#ccc"><path d="M2660 9940v-80h4280v160H2660v-80zM2660 8880v-80h6320v160H2660v-80zM2660 7820v-80h7460v160H2660v-80zM2660 4340v-80h4280v160H2660v-80zM2660 3280v-80h7460v160H2660v-80zM2660 2220v-80h6320v160H2660v-80z"/></g></svg><svg viewBox="0 0 12000 12000" id="enum" xmlns="http://www.w3.org/2000/svg"><g fill="#4f4f4f"><path d="M4767 7286c-167-60-245-250-169-411 53-111 146-169 272-169 83-1 135 19 202 74 80 66 116 203 84 315-23 75-106 163-180 188-59 20-156 21-209 3zM3458 5990l-3-1290-368 240c-202 132-370 240-372 240-3 0-5-101-5-224v-224l384-251 384-251h452v3050h-470l-2-1290zM7100 6440v-80h3100v160H7100v-80zM7100 5380v-80h2620v160H7100v-80zM7100 4320v-80h4100v160H7100v-80z"/></g><g fill="#ccc"><path d="M7100 6440v-80h3100v160H7100v-80zM7100 5380v-80h2620v160H7100v-80zM7100 4320v-80h4100v160H7100v-80z"/></g></svg><svg version="1.0" viewBox="0 0 12000 12000" id="heading1" xmlns="http://www.w3.org/2000/svg"><g fill="#4f4f4f"><path d="M3150 4480V2960h470v1320h1500V2960h460v3040h-460V4680H3620v1320h-470V4480zM6888 4715l-3-1285-368 240c-202 132-370 240-372 240-3 0-5-101-5-224v-224l384-251 384-251h452v3040h-470l-2-1285z"/></g><g fill="#ccc"><path d="M2660 9540v-80h4280v160H2660v-80zM2660 8480v-80h6320v160H2660v-80zM2660 7420v-80h7460v160H2660v-80z"/></g></svg><svg viewBox="0 0 12000 12000" id="heading2" xmlns="http://www.w3.org/2000/svg"><g fill="#4f4f4f"><path d="M2660 9540v-80h4280v160H2660v-80zM2660 8480v-80h6320v160H2660v-80zM2660 7420v-80h7460v160H2660v-80zM3150 4480V2960h470v1320h1500V2960h460v3040h-460V4680H3620v1320h-470V4480zM6200 5830v-171l528-547c560-580 675-702 771-822 203-254 258-490 161-698-57-121-188-223-332-257-81-19-238-19-311 0-141 37-258 128-316 247-32 64-61 176-61 236v32h-225c-173 0-225-3-225-12 0-43 23-202 36-253 40-156 151-330 277-435 88-74 259-161 374-190 416-104 857 17 1089 299 61 73 135 216 159 306 22 81 31 284 16 371-35 206-143 401-366 662-50 59-280 304-511 545-230 242-420 443-422 448s273 9 677 9h681v400H6200v-170z"/></g><g fill="#ccc"><path d="M2660 9540v-80h4280v160H2660v-80zM2660 8480v-80h6320v160H2660v-80zM2660 7420v-80h7460v160H2660v-80z"/></g></svg><svg viewBox="0 0 12000 12000" id="heading3" xmlns="http://www.w3.org/2000/svg"><g fill="#4f4f4f"><path d="M2660 9540v-80h4280v160H2660v-80zM2660 8480v-80h6320v160H2660v-80zM2660 7420v-80h7460v160H2660v-80zM7103 6040c-51-5-130-18-176-29-436-103-696-368-742-753l-7-58h482v28c0 75 69 204 144 268 60 52 188 110 285 130 124 25 299 16 406-20 101-34 156-66 223-130 236-222 170-601-131-752-123-62-195-76-434-81l-213-5v-376l193-5c133-3 210-10 252-21 178-49 306-158 355-302 44-126 35-248-25-371-56-113-158-192-296-228-72-20-249-19-324 0-210 54-355 190-388 364l-12 61h-445v-48c0-72 34-196 79-287 182-369 669-569 1167-480 353 64 613 288 700 606 13 47 18 101 19 204 0 119-4 151-23 215-35 111-86 196-166 275s-153 125-250 159c-37 13-67 27-67 31 0 5 41 18 90 31 253 64 441 241 507 479 10 35 18 114 21 190 4 109 2 144-16 220-83 346-382 596-802 669-114 20-292 27-406 16zM3150 4485V2960h470v1320h1500V2960h460v3050h-460V4680H3620v1330h-470V4485z"/></g><g fill="#ccc"><path d="M2660 9540v-80h4280v160H2660v-80zM2660 8480v-80h6320v160H2660v-80zM2660 7420v-80h7460v160H2660v-80z"/></g></svg><svg viewBox="0 0 12000 12000" id="item" xmlns="http://www.w3.org/2000/svg"><g fill="#4f4f4f"><path d="M7100 6440v-80h3100v160H7100v-80zM3905 6354c-103-20-223-83-305-161-86-80-133-150-173-256-29-76-31-91-31-217-1-113 3-146 21-205 68-213 239-375 458-436 102-28 273-23 375 9 138 45 278 155 352 277 84 139 117 328 84 485-40 189-177 367-347 448-141 68-282 86-434 56zM7100 5380v-80h2620v160H7100v-80zM7100 4320v-80h4100v160H7100v-80z"/></g><g fill="#ccc"><path d="M7100 6440v-80h3100v160H7100v-80zM7100 5380v-80h2620v160H7100v-80zM7100 4320v-80h4100v160H7100v-80z"/></g></svg><svg viewBox="0 0 360 360" id="mathblock" xmlns="http://www.w3.org/2000/svg"><path d="M135.3 105H33l-3 37.6h4c2.4-27 4.9-32.6 30.2-32.6 3 0 7.4 0 9.1.3 3.5.7 3.5 2.5 3.5 6.4v88.1c0 5.7 0 8.1-17.6 8.1h-6.7v5.2c6.9-.5 23.8-.5 31.6-.5s25 0 31.9.5V213h-6.7c-17.6 0-17.6-2.4-17.6-8.1v-88.1c0-3.4 0-5.7 3-6.4 1.8-.3 6.4-.3 9.6-.3 25.2 0 27.7 5.5 30.1 32.6h4.2l-3.3-37.7z"/><path d="M225.2 212.8H221c-4.2 25.7-8.1 37.9-36.8 37.9H162c-7.9 0-8.2-1.2-8.2-6.7v-44.7h14.9c16.3 0 18.1 5.4 18.1 19.6h4.2v-44.3h-4c0 14.3-1.8 19.5-18.1 19.5H154V154c0-5.5.3-6.7 8.2-6.7h21.5c25.7 0 30.1 9.2 32.7 32.6h4.2l-4.7-37.6h-94v5h3.9c12.9 0 13.3 1.8 13.3 7.9v87.6c0 6-.3 7.9-13.3 7.9h-3.9v5.2h96.4l6.9-43.1z"/><path d="M275.8 153.6l23-33.6c3.5-5.4 9.2-10.7 24.2-10.9v-5h-40v5c6.7.2 10.4 3.9 10.4 7.7 0 1.7-.3 2-1.5 3.9l-19.1 28.2-21.5-32.2c-.3-.5-1.2-1.8-1.2-2.5 0-2 3.7-4.9 10.7-5v-5c-5.7.5-18 .5-24.3.5-5.2 0-15.6-.2-21.8-.5v5h3.2c9.2 0 12.4 1.2 15.6 5.9l30.7 46.5-27.4 40.5c-2.4 3.4-7.4 11.1-24.2 11.1v5.2h40V213c-7.7-.2-10.6-4.7-10.6-7.7 0-1.5.5-2.2 1.7-4l23.7-35.1 26.5 40c.3.7.8 1.3.8 1.8 0 2-3.7 4.9-10.9 5v5.2c5.9-.5 18.1-.5 24.3-.5 7.1 0 14.8.2 21.8.5V213h-3.2c-8.7 0-12.3-.8-15.8-6l-35.1-53.4z"/></svg><svg viewBox="0 0 12000 12000" id="text" xmlns="http://www.w3.org/2000/svg"><g fill="#4f4f4f"><path d="M7270 7553c-343-20-593-190-682-463-26-82-36-291-18-383 40-208 188-360 430-445 120-42 257-67 550-102 277-33 372-55 414-96 34-35 40-60 33-148-18-241-196-374-472-352-202 15-375 117-449 265-15 29-32 51-39 48-7-2-99-24-206-48-113-25-195-48-198-56-3-7 9-42 25-78 122-259 359-429 682-486 117-21 374-16 490 8 194 42 330 112 438 228 67 71 132 190 157 290 29 111 35 277 35 1028v747h-449l-3-157-3-158-29 49c-58 100-182 198-316 253-103 41-259 64-390 56zm298-379c208-42 369-185 417-369 10-42 15-109 15-227 0-92-2-168-4-168s-23 7-47 16c-67 23-205 50-412 79-277 38-383 77-469 173-94 105-87 293 16 395 100 100 292 140 484 101zM3550 7501c0-8 1053-2940 1085-3023 7-17 29-18 274-18h266l544 1513c300 831 546 1518 549 1525 3 9-50 12-245 12h-249l-139-405-140-405H4323l-140 403-139 402-247 3c-155 1-247-1-247-7zm1760-1333c-152-446-391-1132-395-1137-3-2-8-1-11 2-6 5-444 1264-444 1274 0 2 202 3 450 3h449l-49-142z"/></g></svg><svg viewBox="0 0 12000 12000" id="todo" xmlns="http://www.w3.org/2000/svg"><g fill="#4aa9e2"><path d="M2295 7580c-81-26-127-67-167-148l-33-67V4095l29-63c32-69 77-114 145-146l46-21 1624-3c1455-2 1631-1 1679 13 100 30 159 84 199 185 17 43 18 131 18 1660 0 1495-1 1619-17 1670-26 84-68 134-146 172l-67 33-1625 2c-1577 2-1627 1-1685-17zM7100 6440v-80h3100v160H7100v-80zM7100 5380v-80h2620v160H7100v-80zM7100 4320v-80h4100v160H7100v-80z"/></g><g fill="#ccc"><path d="M3202 6271c-233-229-423-421-422-426 0-6 53-63 118-128l117-117 300 300c165 165 304 300 310 300s300-290 655-645l645-645 122 122 123 123-567 568c-313 313-660 657-773 767l-205 198-423-417zM7100 6440v-80h3100v160H7100v-80zM7100 5380v-80h2620v160H7100v-80zM7100 4320v-80h4100v160H7100v-80z"/></g><path fill="#fff" d="M3203 6267l-421-422 113-120 114-120 143 140c79 77 217 213 308 302l165 162 650-644 650-644 118 117c64 64 116 119 114 122-1 3-346 348-767 767l-765 763-422-423z"/></svg><svg viewBox="0 0 0 0" id="twemoji" xmlns="http://www.w3.org/2000/svg"><defs><svg viewBox="0 0 12000 12000" id="mblockquote" xmlns="http://www.w3.org/2000/svg"><path d="M4587 9914c-182-44-314-174-362-355-58-216-3-519 129-718 98-147 246-256 411-302 101-28 269-31 362-6 187 49 308 177 359 377 13 51 15 95 11 205-6 171-28 261-96 400-105 211-261 341-475 395-94 24-250 26-339 4zm339-253c175-82 295-305 298-556 1-150-17-209-87-279-64-64-114-81-224-74-123 7-225 68-303 179-91 129-134 283-128 449 5 123 27 186 88 245 84 82 227 96 356 36zm1964 255c-88-23-168-91-213-181-28-56-30-54-47 50-6 39-13 82-16 98l-6 27h-134c-74 0-134-2-134-5s68-410 150-905c83-496 150-905 150-910 0-6 58-10 141-10h141l-6 28c-14 65-105 636-103 639 2 1 19-18 37-43 105-139 290-210 478-184 281 39 424 267 391 625-43 465-332 787-703 784-45 0-101-6-126-13zm265-260c80-36 156-118 204-219 61-126 75-192 76-342 0-115-3-136-23-180-28-60-73-109-127-138-32-18-57-22-130-22-82 0-97 3-156 32-150 74-250 245-279 477-12 99 0 203 31 277 23 52 82 113 127 130 81 32 188 26 277-15zm1151 259c-140-36-265-133-320-249-98-207-65-538 80-786 53-92 200-236 289-282 196-102 452-111 618-20 104 56 180 157 212 280 19 77 21 228 4 352l-12 90h-974l-6 62c-19 215 76 326 289 336 152 7 271-43 343-143 18-25 35-45 39-45 36 0 242 46 242 54 0 26-65 121-118 174-71 70-162 124-267 159-67 22-102 26-220 29-100 3-157-1-199-11zm632-903c-8-142-84-235-214-262-177-37-400 105-468 298l-15 42h702l-5-78zM1550 5995V2070h280v7850h-280V5995zm2033 3906c-115-39-174-106-194-218-10-53-5-96 60-491 39-238 71-435 71-437 0-3-44-5-98-5h-98l17-107c10-60 18-109 19-110 0-2 45-3 99-3h99l11-62c6-35 18-109 27-165l17-103h139c76 0 138 1 138 3 0 1-11 67-25 147s-25 153-25 163c0 15 13 17 135 17s135 2 135 18c0 18-16 127-26 175l-6 27h-139c-136 0-139 0-144 23-15 68-125 751-125 781 0 90 39 121 151 119l77-1 6 46c3 26 7 76 8 112l3 65-45 12c-71 18-226 15-287-6zm84-2987c-182-44-314-174-362-355-58-216-3-519 129-718 98-147 246-256 411-302 101-28 269-31 362-6 187 49 308 177 359 377 13 51 15 95 11 205-6 171-28 261-96 400-105 211-261 341-475 395-94 24-250 26-339 4zm339-253c175-82 295-305 298-556 1-150-17-209-87-279-64-64-114-81-224-74-123 7-225 68-303 179-91 129-134 283-128 449 5 123 27 186 88 245 84 82 227 96 356 36zm4291 253c-182-44-314-174-362-355-58-216-3-519 129-718 98-147 246-256 411-302 101-28 269-31 362-6 187 49 308 177 359 377 13 51 15 95 11 205-6 171-28 261-96 400-105 211-261 341-475 395-94 24-250 26-339 4zm339-253c175-82 295-305 298-556 1-150-17-209-87-279-64-64-114-81-224-74-123 7-225 68-303 179-91 129-134 283-128 449 5 123 27 186 88 245 84 82 227 96 356 36zm1077 240c-115-39-174-106-194-218-10-53-5-96 60-491 39-238 71-435 71-437 0-3-44-5-98-5h-98l17-107c10-60 18-109 19-110 0-2 45-3 99-3h99l11-62c6-35 18-109 27-165l17-103h139c76 0 138 1 138 3 0 1-11 67-25 147s-25 153-25 163c0 15 13 17 135 17s135 2 135 18c0 18-16 127-26 175l-6 27h-139c-136 0-139 0-144 23-15 68-125 751-125 781 0 90 39 121 151 119l77-1 6 46c3 26 7 76 8 112l3 65-45 12c-71 18-226 15-287-6zm-4962-8c0-10 51-319 112-688l113-670 132-3c152-3 140-15 117 118-8 47-15 87-15 89s18-20 39-51c45-62 120-118 201-149 59-23 234-38 257-22 9 7 7 37-9 133l-20 125h-122c-112 0-126 2-183 29-74 34-154 113-184 182-17 40-128 664-155 872l-7 52h-138c-126 0-139-2-138-17zm1619 12c0-9 220-1329 225-1352 5-22 9-23 135-23 150 0 138-12 115 120-19 110-20 109 13 64 65-88 169-157 282-185 76-19 222-17 292 4 104 31 194 121 224 225s22 200-60 689c-42 249-76 455-76 458s-63 5-140 5h-140l5-22c14-63 145-874 145-902 0-63-28-132-69-169-50-45-100-62-181-60-137 2-251 76-315 206-34 68-40 100-108 510l-71 437h-138c-76 0-138-2-138-5zM4587 3914c-182-44-314-174-362-355-58-216-3-519 129-718 98-147 246-256 411-302 101-28 269-31 362-6 187 49 308 177 359 377 13 51 15 95 11 205-6 171-28 261-96 400-105 211-261 341-475 395-94 24-250 26-339 4zm339-253c175-82 295-305 298-556 1-150-17-209-87-279-64-64-114-81-224-74-123 7-225 68-303 179-91 129-134 283-128 449 5 123 27 186 88 245 84 82 227 96 356 36zm1964 255c-88-23-168-91-213-181-28-56-30-54-47 50-6 39-13 82-16 98l-6 27h-134c-74 0-134-2-134-5s68-410 150-905c83-496 150-905 150-910 0-6 58-10 141-10h141l-6 28c-14 65-105 636-103 639 2 1 19-18 37-43 105-139 290-210 478-184 281 39 424 267 391 625-43 465-332 787-703 784-45 0-101-6-126-13zm265-260c80-36 156-118 204-219 61-126 75-192 76-342 0-115-3-136-23-180-28-60-73-109-127-138-32-18-57-22-130-22-82 0-97 3-156 32-150 74-250 245-279 477-12 99 0 203 31 277 23 52 82 113 127 130 81 32 188 26 277-15zm1151 259c-140-36-265-133-320-249-98-207-65-538 80-786 53-92 200-236 289-282 196-102 452-111 618-20 104 56 180 157 212 280 19 77 21 228 4 352l-12 90h-974l-6 62c-19 215 76 326 289 336 152 7 271-43 343-143 18-25 35-45 39-45 36 0 242 46 242 54 0 26-65 121-118 174-71 70-162 124-267 159-67 22-102 26-220 29-100 3-157-1-199-11zm632-903c-8-142-84-235-214-262-177-37-400 105-468 298l-15 42h702l-5-78zm-5355 889c-115-39-174-106-194-218-10-53-5-96 60-491 39-238 71-435 71-437 0-3-44-5-98-5h-98l17-107c10-60 18-109 19-110 0-2 45-3 99-3h99l11-62c6-35 18-109 27-165l17-103h139c76 0 138 1 138 3 0 1-11 67-25 147s-25 153-25 163c0 15 13 17 135 17s135 2 135 18c0 18-16 127-26 175l-6 27h-139c-136 0-139 0-144 23-15 68-125 751-125 781 0 90 39 121 151 119l77-1 6 46c3 26 7 76 8 112l3 65-45 12c-71 18-226 15-287-6z" fill="#4f4f4f"/><path d="M4587 9914c-182-44-314-174-362-355-58-216-3-519 129-718 98-147 246-256 411-302 101-28 269-31 362-6 187 49 308 177 359 377 13 51 15 95 11 205-6 171-28 261-96 400-105 211-261 341-475 395-94 24-250 26-339 4zm339-253c175-82 295-305 298-556 1-150-17-209-87-279-64-64-114-81-224-74-123 7-225 68-303 179-91 129-134 283-128 449 5 123 27 186 88 245 84 82 227 96 356 36zm1964 255c-88-23-168-91-213-181-28-56-30-54-47 50-6 39-13 82-16 98l-6 27h-134c-74 0-134-2-134-5s68-410 150-905c83-496 150-905 150-910 0-6 58-10 141-10h141l-6 28c-14 65-105 636-103 639 2 1 19-18 37-43 105-139 290-210 478-184 281 39 424 267 391 625-43 465-332 787-703 784-45 0-101-6-126-13zm265-260c80-36 156-118 204-219 61-126 75-192 76-342 0-115-3-136-23-180-28-60-73-109-127-138-32-18-57-22-130-22-82 0-97 3-156 32-150 74-250 245-279 477-12 99 0 203 31 277 23 52 82 113 127 130 81 32 188 26 277-15zm1151 259c-140-36-265-133-320-249-98-207-65-538 80-786 53-92 200-236 289-282 196-102 452-111 618-20 104 56 180 157 212 280 19 77 21 228 4 352l-12 90h-974l-6 62c-19 215 76 326 289 336 152 7 271-43 343-143 18-25 35-45 39-45 36 0 242 46 242 54 0 26-65 121-118 174-71 70-162 124-267 159-67 22-102 26-220 29-100 3-157-1-199-11zm632-903c-8-142-84-235-214-262-177-37-400 105-468 298l-15 42h702l-5-78zm-5355 889c-115-39-174-106-194-218-10-53-5-96 60-491 39-238 71-435 71-437 0-3-44-5-98-5h-98l17-107c10-60 18-109 19-110 0-2 45-3 99-3h99l11-62c6-35 18-109 27-165l17-103h139c76 0 138 1 138 3 0 1-11 67-25 147s-25 153-25 163c0 15 13 17 135 17s135 2 135 18c0 18-16 127-26 175l-6 27h-139c-136 0-139 0-144 23-15 68-125 751-125 781 0 90 39 121 151 119l77-1 6 46c3 26 7 76 8 112l3 65-45 12c-71 18-226 15-287-6zm84-2987c-182-44-314-174-362-355-58-216-3-519 129-718 98-147 246-256 411-302 101-28 269-31 362-6 187 49 308 177 359 377 13 51 15 95 11 205-6 171-28 261-96 400-105 211-261 341-475 395-94 24-250 26-339 4zm339-253c175-82 295-305 298-556 1-150-17-209-87-279-64-64-114-81-224-74-123 7-225 68-303 179-91 129-134 283-128 449 5 123 27 186 88 245 84 82 227 96 356 36zm4291 253c-182-44-314-174-362-355-58-216-3-519 129-718 98-147 246-256 411-302 101-28 269-31 362-6 187 49 308 177 359 377 13 51 15 95 11 205-6 171-28 261-96 400-105 211-261 341-475 395-94 24-250 26-339 4zm339-253c175-82 295-305 298-556 1-150-17-209-87-279-64-64-114-81-224-74-123 7-225 68-303 179-91 129-134 283-128 449 5 123 27 186 88 245 84 82 227 96 356 36zm1077 240c-115-39-174-106-194-218-10-53-5-96 60-491 39-238 71-435 71-437 0-3-44-5-98-5h-98l17-107c10-60 18-109 19-110 0-2 45-3 99-3h99l11-62c6-35 18-109 27-165l17-103h139c76 0 138 1 138 3 0 1-11 67-25 147s-25 153-25 163c0 15 13 17 135 17s135 2 135 18c0 18-16 127-26 175l-6 27h-139c-136 0-139 0-144 23-15 68-125 751-125 781 0 90 39 121 151 119l77-1 6 46c3 26 7 76 8 112l3 65-45 12c-71 18-226 15-287-6zm-4962-8c0-10 51-319 112-688l113-670 132-3c152-3 140-15 117 118-8 47-15 87-15 89s18-20 39-51c45-62 120-118 201-149 59-23 234-38 257-22 9 7 7 37-9 133l-20 125h-122c-112 0-126 2-183 29-74 34-154 113-184 182-17 40-128 664-155 872l-7 52h-138c-126 0-139-2-138-17zm1619 12c0-9 220-1329 225-1352 5-22 9-23 135-23 150 0 138-12 115 120-19 110-20 109 13 64 65-88 169-157 282-185 76-19 222-17 292 4 104 31 194 121 224 225s22 200-60 689c-42 249-76 455-76 458s-63 5-140 5h-140l5-22c14-63 145-874 145-902 0-63-28-132-69-169-50-45-100-62-181-60-137 2-251 76-315 206-34 68-40 100-108 510l-71 437h-138c-76 0-138-2-138-5zM4587 3914c-182-44-314-174-362-355-58-216-3-519 129-718 98-147 246-256 411-302 101-28 269-31 362-6 187 49 308 177 359 377 13 51 15 95 11 205-6 171-28 261-96 400-105 211-261 341-475 395-94 24-250 26-339 4zm339-253c175-82 295-305 298-556 1-150-17-209-87-279-64-64-114-81-224-74-123 7-225 68-303 179-91 129-134 283-128 449 5 123 27 186 88 245 84 82 227 96 356 36zm1964 255c-88-23-168-91-213-181-28-56-30-54-47 50-6 39-13 82-16 98l-6 27h-134c-74 0-134-2-134-5s68-410 150-905c83-496 150-905 150-910 0-6 58-10 141-10h141l-6 28c-14 65-105 636-103 639 2 1 19-18 37-43 105-139 290-210 478-184 281 39 424 267 391 625-43 465-332 787-703 784-45 0-101-6-126-13zm265-260c80-36 156-118 204-219 61-126 75-192 76-342 0-115-3-136-23-180-28-60-73-109-127-138-32-18-57-22-130-22-82 0-97 3-156 32-150 74-250 245-279 477-12 99 0 203 31 277 23 52 82 113 127 130 81 32 188 26 277-15zm1151 259c-140-36-265-133-320-249-98-207-65-538 80-786 53-92 200-236 289-282 196-102 452-111 618-20 104 56 180 157 212 280 19 77 21 228 4 352l-12 90h-974l-6 62c-19 215 76 326 289 336 152 7 271-43 343-143 18-25 35-45 39-45 36 0 242 46 242 54 0 26-65 121-118 174-71 70-162 124-267 159-67 22-102 26-220 29-100 3-157-1-199-11zm632-903c-8-142-84-235-214-262-177-37-400 105-468 298l-15 42h702l-5-78zm-5355 889c-115-39-174-106-194-218-10-53-5-96 60-491 39-238 71-435 71-437 0-3-44-5-98-5h-98l17-107c10-60 18-109 19-110 0-2 45-3 99-3h99l11-62c6-35 18-109 27-165l17-103h139c76 0 138 1 138 3 0 1-11 67-25 147s-25 153-25 163c0 15 13 17 135 17s135 2 135 18c0 18-16 127-26 175l-6 27h-139c-136 0-139 0-144 23-15 68-125 751-125 781 0 90 39 121 151 119l77-1 6 46c3 26 7 76 8 112l3 65-45 12c-71 18-226 15-287-6z" fill="#ccc"/></svg><svg version="1.0" viewBox="0 0 12000 12000" id="mcode" xmlns="http://www.w3.org/2000/svg"><path d="M8810 11320v-110h410v-920h-400v-220h690v1140h370v220H8810v-110zm426-1550c-34-11-82-54-102-92-19-37-18-132 3-175 32-68 131-107 228-89 43 8 103 59 121 103 17 39 18 111 3 150-33 87-149 134-253 103zm954-7347c1-5 108-165 239-358l239-349-214-317c-118-175-214-320-214-323 0-4 77-5 171-4l171 3 132 227c72 125 134 228 137 228s66-103 140-230l134-230h162c90 0 163 2 163 5s-93 143-207 312c-113 168-206 311-206 318 0 6 106 169 236 363 131 193 237 353 237 356s-78 6-174 6h-173l-159-265c-87-146-162-265-165-265-4 0-78 119-164 265l-158 265h-163c-90 0-164-3-164-7z" fill="#e06c75"/><path d="M4150 8031v-961h129c142 0 141 0 141 65 0 18 3 45 6 61l5 29 55-53c34-33 84-67 132-90 77-37 78-37 207-37 160 0 215 19 304 101 108 99 162 243 181 475 42 515-163 849-520 849-111 0-225-40-307-106l-33-27v619l-117 13c-65 6-133 15-150 18l-33 5v-961zm688 175c68-35 122-124 147-244 19-89 19-345 0-434-36-174-115-257-241-258-89 0-141 25-221 106l-73 74v637l40 46c46 52 108 85 177 96 57 8 130-2 171-23zm6056 250c-122-28-226-101-277-194-54-99-57-131-57-569v-403h-300v-220h300v-298l28-6c15-3 70-10 122-16s107-12 123-15l27-4v339h225c256 0 233-10 215 96-6 32-13 74-16 92l-5 32h-419v398c0 393 0 398 23 442 17 35 34 51 72 70 71 35 189 34 295-3 41-15 79-28 83-29 4-2 31 41 60 94 51 95 52 97 32 112-24 19-110 52-185 72-79 22-271 27-346 10zm-5184-126v-110h190v-930h-190v-220l212 2 213 3 24 148 24 148 36-66c100-183 235-265 435-265 77 0 197 18 211 32 2 2-7 109-20 238-14 129-25 243-25 253 0 15-12 17-110 17h-110v-270h-25c-96 0-229 106-298 237-74 142-77 158-77 430v243h280v220h-770v-110zm3050-575v-685h258l6 40c3 22 9 58 12 80l6 40 55-49c106-94 230-141 377-141 172 0 274 52 333 170 18 36 37 94 43 130 6 37 10 286 10 583v517h-299l-3-517-3-518-25-50c-33-66-71-87-156-87-89 0-169 40-252 126l-62 64v982h-300v-685zm-1064-985c-34-11-82-54-102-92-19-37-18-132 3-175 32-68 131-107 228-89 43 8 103 59 121 103 17 39 18 111 3 150-33 87-149 134-253 103zm2494-4346c0-3 66-103 147-222 82-119 189-278 239-352l91-135-213-317c-118-174-214-319-214-323 0-3 77-4 171-3l171 3 84 145c46 80 105 182 131 228 26 45 50 82 53 82 7 0 22-25 181-297l94-163h163c90 0 162 4 160 8-1 5-88 135-193 290-104 155-198 294-207 310l-18 28 240 358c132 196 240 359 240 361 0 3-78 5-173 5h-173l-159-265c-88-146-163-265-167-265-3 0-77 119-163 265l-158 265h-163c-90 0-164-3-164-6z" fill="#d19a66"/><path d="M1740 11230v-200h-740v-207l254-597c140-329 256-600 259-602 9-9 247 88 247 100 0 7-97 243-216 526s-218 521-221 528c-4 9 41 12 206 12 194 0 211-1 211-17 0-10 7-101 15-203s15-200 15-217v-33h250v470h210v240h-210v400h-280v-200zm2410-3199v-961h129c142 0 141 0 141 65 0 18 3 46 6 62l6 30 52-52c32-32 81-66 131-91l79-39h130c162 0 216 18 307 102 105 98 160 245 180 483 31 378-89 690-304 791-177 82-389 59-517-58l-40-35v628l-122 13c-68 7-135 15-150 18l-28 6v-962zm687 176c112-59 163-201 163-460 0-344-88-490-286-474-80 6-132 36-207 117l-57 61v639l37 41c20 22 55 51 78 64 73 43 201 49 272 12zm-3472 249c-91-18-191-55-260-97-67-40-158-125-153-143 3-14 161-156 173-156 5 0 29 20 55 44 96 89 220 132 364 123 208-11 327-141 314-343-6-92-42-170-96-207-67-47-118-60-260-65l-134-4 7-47c3-25 11-74 16-107l11-61 101-5c115-5 179-27 235-81 93-89 107-242 31-346-65-87-215-129-352-97-82 19-123 40-206 102l-63 47-73-79c-41-43-74-85-75-91 0-18 103-97 180-138 117-61 204-80 370-79 131 0 153 3 225 27 93 32 197 99 244 157 18 22 44 66 59 98 24 51 27 69 27 167 0 103-2 114-32 177-41 88-113 159-201 202l-69 32 73 23c128 40 228 133 269 251 40 115 27 283-31 400-64 128-216 243-379 286-83 21-282 27-370 10zm9555 4c-160-28-275-118-332-257-23-57-23-64-26-485l-3-428h-299v-220h300v-298l28-6c15-3 72-10 127-16s110-13 123-15l22-5v340h453l-7 48c-3 26-11 75-17 110l-11 62h-418v398c0 393 0 398 23 442 15 32 35 52 67 70 40 22 57 24 140 24 77-1 108-6 165-28 39-15 73-28 78-29 4-1 31 42 60 95 61 114 64 108-68 157-128 46-282 62-405 41zm-5210-130v-110h190v-930h-190v-220l212 2 213 3 24 148 24 148 28-50c103-189 220-269 408-279 87-4 211 9 238 26 8 5 5 69-13 242-13 129-23 243-24 253 0 15-12 17-110 17h-110v-270h-25c-13 0-50 10-82 22-107 40-216 176-274 345-17 50-19 84-19 300v243h281l-3 108-3 107-382 3-383 2v-110zm1560-5v-115h410v-920h-400v-220h690v1140h370v230H7270v-115zm1497 108c-4-3-7-312-7-685v-678h258l6 40c3 22 9 58 12 81l6 41 32-30c64-61 151-113 233-138 72-23 96-26 191-23 98 4 114 7 174 37 102 50 156 130 177 262 7 40 11 268 11 583v517h-299l-3-517-3-518-25-50c-33-66-71-87-156-87-89 0-169 40-252 126l-62 64v982h-143c-79 0-147-3-150-7zM7696 6770c-34-11-82-54-102-92-22-42-18-136 9-182 42-74 162-109 250-72 103 43 141 191 72 282-48 63-143 89-229 64zm3071-1314c-112-40-179-167-148-282 46-172 271-233 395-108 67 68 87 183 47 269-50 108-180 161-294 121zm-9757-133v-106l248-251c267-271 361-377 440-499 161-247 141-499-46-584-26-12-65-17-132-17-129 0-185 23-282 113l-73 68-92-71c-51-39-93-76-93-82 0-24 157-160 225-196 96-50 170-68 305-74 393-20 636 214 599 577-15 148-84 294-222 466-70 87-284 306-434 446l-83 77h789l-5 33c-3 17-11 70-17 117l-12 85-558 3-557 2v-107zm9757-777c-97-35-152-116-152-226 1-137 95-230 234-230 86 0 155 38 199 110 27 47 32 63 32 120 0 81-23 134-79 181-66 57-153 74-234 45zM9401 2730c-383-343-547-668-568-1125-12-279 36-523 148-748 88-177 221-344 414-517l99-89 65 58c119 106 120 81-12 226-193 213-278 346-341 535-45 135-66 282-66 457 0 430 107 688 422 1018l101 106-79 80c-43 43-82 79-86 79-5 0-48-36-97-80zm-8271-415v-115h440v-615c0-338-2-615-5-615s-85 49-183 109c-98 61-184 112-192 116-11 3-33-25-77-97-34-57-59-106-55-110 4-3 125-79 269-167l262-161h271v1540h350v230H1130v-115z" fill="#98c379"/><path d="M7655 5463c-179-24-337-136-416-298-89-183-111-427-58-655 55-235 213-406 420-455 84-19 267-20 344 0 255 65 404 268 435 593 25 268-44 517-184 657-129 128-327 186-541 158zm242-254c121-59 173-198 173-464 0-248-53-383-175-448-32-17-57-22-125-22-96 0-141 18-196 77-77 81-107 196-106 408 1 220 41 348 134 423 73 59 203 70 295 26zm-1897-294v-525h-310v-220h308l4-177c3-169 4-181 30-236 55-117 168-205 313-242 78-20 296-20 390 0 86 18 195 54 195 64 0 7-79 193-85 199-1 1-36-7-76-18-174-50-359-34-425 35-42 45-54 100-54 249v126h456l-15 110-15 110h-426v1050h-290v-525zm2780 415v-110h190v-930h-190v-220l212 2 213 3 24 148 24 148 36-66c100-183 235-265 435-265 77 0 197 18 211 32 2 2-7 109-20 238-14 129-25 243-25 253 0 15-12 17-110 17h-110v-270h-25c-96 0-229 106-298 237-74 142-77 158-77 430v243h280v220h-770v-110z" fill="#61afef"/><path d="M4471 2459c-116-23-229-105-291-213-139-243-145-678-12-931 45-84 134-182 199-217 85-46 154-61 272-56 93 3 114 7 171 34 36 17 83 46 103 64l37 32V500h28c28 0 183 17 240 26l32 5v1909h-268l-7-75c-4-41-9-75-11-75-1 0-25 21-52 48-112 109-274 154-441 121zm266-234c64-19 121-61 173-126l40-51v-636l-45-47c-112-115-281-129-390-33-94 82-130 223-122 468 5 172 23 248 76 332 59 93 155 127 268 93zm1448 239c-11-2-45-9-75-15s-92-28-137-50c-192-92-308-281-332-542-39-405 141-721 454-802 78-20 253-20 330 0 189 50 335 204 390 410 20 76 33 230 27 318l-4 67h-899l6 38c39 234 158 345 370 345 102-1 180-22 282-79 34-19 63-34 66-34s33 39 67 87l63 87-34 29c-46 39-180 101-259 122-63 16-274 29-315 19zm369-866c-29-217-112-322-265-335-182-17-312 107-343 330l-7 47h621l-6-42zm976 317v-525h-310v-220h308l4-177c3-169 4-181 30-236 55-117 168-205 313-242 78-20 296-20 390 0 86 18 195 54 195 64 0 7-79 193-85 199-1 1-36-7-76-18-174-50-359-34-425 35-42 45-54 100-54 249v126h456l-15 110-15 110h-426v1050h-290v-525z" fill="#c678dd"/><path d="M1740 11230v-200h-740v-105c0-103 1-106 49-217 27-62 106-248 176-413 223-527 287-675 292-675 22 0 243 96 243 106 0 7-16 50-36 96-20 45-73 173-119 283-67 159-257 614-282 673-4 9 41 12 206 12 194 0 211-1 211-17 0-10 7-101 15-203s15-200 15-217v-33h250v470h210v240h-210v400h-280v-200zm4490-220v-260h-510v-240h510v-520h260v520h1020v-520h260v520h510v240h-510v520h-260v-520H6490v520h-260v-260zM1365 8456c-137-28-216-63-321-142-71-54-106-98-88-112 5-5 43-38 85-75s79-67 83-67c3 0 25 18 48 40 53 50 159 105 235 121 34 6 94 9 142 6 207-13 322-144 308-349-13-188-126-268-379-268-80 0-108-3-108-12 0-7 7-53 15-103 8-49 15-93 15-96 0-4 46-8 103-11 116-5 179-27 235-81 93-89 107-242 31-346-39-52-132-99-214-107-117-12-229 24-343 111l-63 47-74-78c-41-44-74-85-75-91 0-18 104-97 180-138 117-61 204-80 370-79 131 0 153 3 225 27 92 32 195 98 243 157 18 22 45 66 60 97 24 52 27 69 27 168 0 103-2 114-32 177-41 88-113 159-201 202l-69 32 74 23c125 39 230 137 269 253 23 66 25 230 5 303-50 178-212 327-416 381-84 22-282 27-370 10zm9404-3000c-113-40-181-168-150-282 46-172 271-233 395-108 67 68 87 183 47 269-50 107-180 161-292 121zm-9759-133l1-108 257-260c265-267 378-398 451-520 113-189 115-408 4-505-58-51-98-64-203-64-129 0-185 23-282 113l-73 68-92-71c-51-39-93-76-93-82s35-45 79-86c130-125 253-175 451-184 301-15 515 116 587 360 9 31 15 90 15 151-1 180-71 343-234 542-64 79-276 296-425 436l-83 77h789l-5 33c-3 17-11 70-17 117l-12 85-558 3-557 2v-107zm9757-777c-85-31-140-101-153-197-19-136 91-258 231-258 138-1 235 95 235 230 0 168-157 280-313 225zM9394 2722c-377-338-540-663-561-1117-18-403 98-758 337-1033 112-130 302-312 324-312 6 0 47 34 91 74l80 75-51 53c-362 378-474 631-474 1064s105 687 421 1018l102 107-79 80c-43 43-82 79-86 79-3 0-51-40-104-88zm-8264-407v-115h440v-615c0-338-2-615-5-615s-85 49-183 109c-98 61-184 112-192 116-13 5-62-65-127-181-15-26-46-3 304-218l222-136h271v1540h350v230H1130v-115z" fill="#ccc"/></svg><svg viewBox="0 0 12000 12000" id="mdetails" xmlns="http://www.w3.org/2000/svg"><path d="M2430 5735c0-1026 1-1865 3-1865 12 0 3189 1858 3189 1865 0 8-3028 1779-3154 1846l-38 19V5735zm4670 705v-80h3100v160H7100v-80zm0-1060v-80h2620v160H7100v-80zm0-1060v-80h4100v160H7100v-80z" fill="#4f4f4f"/><path d="M7100 6440v-80h3100v160H7100v-80zm0-1060v-80h2620v160H7100v-80zm0-1060v-80h4100v160H7100v-80z" fill="#ccc"/></svg><svg viewBox="0 0 12000 12000" id="mdivider" xmlns="http://www.w3.org/2000/svg"><path d="M2660 9940v-80h4280v160H2660v-80zm0-1060v-80h6320v160H2660v-80zm0-1060v-80h7460v160H2660v-80zm-870-1660v-80h9200v160H1790v-80zm870-1820v-80h4280v160H2660v-80zm0-1060v-80h7460v160H2660v-80zm0-1060v-80h6320v160H2660v-80z" fill="#4f4f4f"/><path d="M2660 9940v-80h4280v160H2660v-80zm0-1060v-80h6320v160H2660v-80zm0-1060v-80h7460v160H2660v-80zm0-3480v-80h4280v160H2660v-80zm0-1060v-80h7460v160H2660v-80zm0-1060v-80h6320v160H2660v-80z" fill="#ccc"/></svg><svg viewBox="0 0 12000 12000" id="menum" xmlns="http://www.w3.org/2000/svg"><path d="M4767 7286c-167-60-245-250-169-411 53-111 146-169 272-169 83-1 135 19 202 74 80 66 116 203 84 315-23 75-106 163-180 188-59 20-156 21-209 3zM3458 5990l-3-1290-368 240c-202 132-370 240-372 240-3 0-5-101-5-224v-224l384-251 384-251h452v3050h-470l-2-1290zm3642 450v-80h3100v160H7100v-80zm0-1060v-80h2620v160H7100v-80zm0-1060v-80h4100v160H7100v-80z" fill="#4f4f4f"/><path d="M7100 6440v-80h3100v160H7100v-80zm0-1060v-80h2620v160H7100v-80zm0-1060v-80h4100v160H7100v-80z" fill="#ccc"/></svg><svg version="1.0" viewBox="0 0 12000 12000" id="mheading1" xmlns="http://www.w3.org/2000/svg"><path d="M3150 4480V2960h470v1320h1500V2960h460v3040h-460V4680H3620v1320h-470V4480zm3738 235l-3-1285-368 240c-202 132-370 240-372 240-3 0-5-101-5-224v-224l384-251 384-251h452v3040h-470l-2-1285z" fill="#4f4f4f"/><path d="M2660 9540v-80h4280v160H2660v-80zm0-1060v-80h6320v160H2660v-80zm0-1060v-80h7460v160H2660v-80z" fill="#ccc"/></svg><svg viewBox="0 0 12000 12000" id="mheading2" xmlns="http://www.w3.org/2000/svg"><path d="M2660 9540v-80h4280v160H2660v-80zm0-1060v-80h6320v160H2660v-80zm0-1060v-80h7460v160H2660v-80zm490-2940V2960h470v1320h1500V2960h460v3040h-460V4680H3620v1320h-470V4480zm3050 1350v-171l528-547c560-580 675-702 771-822 203-254 258-490 161-698-57-121-188-223-332-257-81-19-238-19-311 0-141 37-258 128-316 247-32 64-61 176-61 236v32h-225c-173 0-225-3-225-12 0-43 23-202 36-253 40-156 151-330 277-435 88-74 259-161 374-190 416-104 857 17 1089 299 61 73 135 216 159 306 22 81 31 284 16 371-35 206-143 401-366 662-50 59-280 304-511 545-230 242-420 443-422 448s273 9 677 9h681v400H6200v-170z" fill="#4f4f4f"/><path d="M2660 9540v-80h4280v160H2660v-80zm0-1060v-80h6320v160H2660v-80zm0-1060v-80h7460v160H2660v-80z" fill="#ccc"/></svg><svg viewBox="0 0 12000 12000" id="mheading3" xmlns="http://www.w3.org/2000/svg"><path d="M2660 9540v-80h4280v160H2660v-80zm0-1060v-80h6320v160H2660v-80zm0-1060v-80h7460v160H2660v-80zm4443-1380c-51-5-130-18-176-29-436-103-696-368-742-753l-7-58h482v28c0 75 69 204 144 268 60 52 188 110 285 130 124 25 299 16 406-20 101-34 156-66 223-130 236-222 170-601-131-752-123-62-195-76-434-81l-213-5v-376l193-5c133-3 210-10 252-21 178-49 306-158 355-302 44-126 35-248-25-371-56-113-158-192-296-228-72-20-249-19-324 0-210 54-355 190-388 364l-12 61h-445v-48c0-72 34-196 79-287 182-369 669-569 1167-480 353 64 613 288 700 606 13 47 18 101 19 204 0 119-4 151-23 215-35 111-86 196-166 275s-153 125-250 159c-37 13-67 27-67 31 0 5 41 18 90 31 253 64 441 241 507 479 10 35 18 114 21 190 4 109 2 144-16 220-83 346-382 596-802 669-114 20-292 27-406 16zM3150 4485V2960h470v1320h1500V2960h460v3050h-460V4680H3620v1330h-470V4485z" fill="#4f4f4f"/><path d="M2660 9540v-80h4280v160H2660v-80zm0-1060v-80h6320v160H2660v-80zm0-1060v-80h7460v160H2660v-80z" fill="#ccc"/></svg><svg viewBox="0 0 12000 12000" id="mitem" xmlns="http://www.w3.org/2000/svg"><path d="M7100 6440v-80h3100v160H7100v-80zm-3195-86c-103-20-223-83-305-161-86-80-133-150-173-256-29-76-31-91-31-217-1-113 3-146 21-205 68-213 239-375 458-436 102-28 273-23 375 9 138 45 278 155 352 277 84 139 117 328 84 485-40 189-177 367-347 448-141 68-282 86-434 56zm3195-974v-80h2620v160H7100v-80zm0-1060v-80h4100v160H7100v-80z" fill="#4f4f4f"/><path d="M7100 6440v-80h3100v160H7100v-80zm0-1060v-80h2620v160H7100v-80zm0-1060v-80h4100v160H7100v-80z" fill="#ccc"/></svg><svg viewBox="0 0 360 360" id="mmathblock" xmlns="http://www.w3.org/2000/svg"><path d="M135.3 105H33l-3 37.6h4c2.4-27 4.9-32.6 30.2-32.6 3 0 7.4 0 9.1.3 3.5.7 3.5 2.5 3.5 6.4v88.1c0 5.7 0 8.1-17.6 8.1h-6.7v5.2c6.9-.5 23.8-.5 31.6-.5s25 0 31.9.5V213h-6.7c-17.6 0-17.6-2.4-17.6-8.1v-88.1c0-3.4 0-5.7 3-6.4 1.8-.3 6.4-.3 9.6-.3 25.2 0 27.7 5.5 30.1 32.6h4.2l-3.3-37.7z"/><path d="M225.2 212.8H221c-4.2 25.7-8.1 37.9-36.8 37.9H162c-7.9 0-8.2-1.2-8.2-6.7v-44.7h14.9c16.3 0 18.1 5.4 18.1 19.6h4.2v-44.3h-4c0 14.3-1.8 19.5-18.1 19.5H154V154c0-5.5.3-6.7 8.2-6.7h21.5c25.7 0 30.1 9.2 32.7 32.6h4.2l-4.7-37.6h-94v5h3.9c12.9 0 13.3 1.8 13.3 7.9v87.6c0 6-.3 7.9-13.3 7.9h-3.9v5.2h96.4l6.9-43.1z"/><path d="M275.8 153.6l23-33.6c3.5-5.4 9.2-10.7 24.2-10.9v-5h-40v5c6.7.2 10.4 3.9 10.4 7.7 0 1.7-.3 2-1.5 3.9l-19.1 28.2-21.5-32.2c-.3-.5-1.2-1.8-1.2-2.5 0-2 3.7-4.9 10.7-5v-5c-5.7.5-18 .5-24.3.5-5.2 0-15.6-.2-21.8-.5v5h3.2c9.2 0 12.4 1.2 15.6 5.9l30.7 46.5-27.4 40.5c-2.4 3.4-7.4 11.1-24.2 11.1v5.2h40V213c-7.7-.2-10.6-4.7-10.6-7.7 0-1.5.5-2.2 1.7-4l23.7-35.1 26.5 40c.3.7.8 1.3.8 1.8 0 2-3.7 4.9-10.9 5v5.2c5.9-.5 18.1-.5 24.3-.5 7.1 0 14.8.2 21.8.5V213h-3.2c-8.7 0-12.3-.8-15.8-6l-35.1-53.4z"/></svg><svg viewBox="0 0 12000 12000" id="mtext" xmlns="http://www.w3.org/2000/svg"><path d="M7270 7553c-343-20-593-190-682-463-26-82-36-291-18-383 40-208 188-360 430-445 120-42 257-67 550-102 277-33 372-55 414-96 34-35 40-60 33-148-18-241-196-374-472-352-202 15-375 117-449 265-15 29-32 51-39 48-7-2-99-24-206-48-113-25-195-48-198-56-3-7 9-42 25-78 122-259 359-429 682-486 117-21 374-16 490 8 194 42 330 112 438 228 67 71 132 190 157 290 29 111 35 277 35 1028v747h-449l-3-157-3-158-29 49c-58 100-182 198-316 253-103 41-259 64-390 56zm298-379c208-42 369-185 417-369 10-42 15-109 15-227 0-92-2-168-4-168s-23 7-47 16c-67 23-205 50-412 79-277 38-383 77-469 173-94 105-87 293 16 395 100 100 292 140 484 101zm-4018 327c0-8 1053-2940 1085-3023 7-17 29-18 274-18h266l544 1513c300 831 546 1518 549 1525 3 9-50 12-245 12h-249l-139-405-140-405H4323l-140 403-139 402-247 3c-155 1-247-1-247-7zm1760-1333c-152-446-391-1132-395-1137-3-2-8-1-11 2-6 5-444 1264-444 1274 0 2 202 3 450 3h449l-49-142z" fill="#4f4f4f"/></svg><svg viewBox="0 0 12000 12000" id="mtodo" xmlns="http://www.w3.org/2000/svg"><path d="M2295 7580c-81-26-127-67-167-148l-33-67V4095l29-63c32-69 77-114 145-146l46-21 1624-3c1455-2 1631-1 1679 13 100 30 159 84 199 185 17 43 18 131 18 1660 0 1495-1 1619-17 1670-26 84-68 134-146 172l-67 33-1625 2c-1577 2-1627 1-1685-17zm4805-1140v-80h3100v160H7100v-80zm0-1060v-80h2620v160H7100v-80zm0-1060v-80h4100v160H7100v-80z" fill="#4aa9e2"/><path d="M3202 6271c-233-229-423-421-422-426 0-6 53-63 118-128l117-117 300 300c165 165 304 300 310 300s300-290 655-645l645-645 122 122 123 123-567 568c-313 313-660 657-773 767l-205 198-423-417zm3898 169v-80h3100v160H7100v-80zm0-1060v-80h2620v160H7100v-80zm0-1060v-80h4100v160H7100v-80z" fill="#ccc"/><path fill="#fff" d="M3203 6267l-421-422 113-120 114-120 143 140c79 77 217 213 308 302l165 162 650-644 650-644 118 117c64 64 116 119 114 122-1 3-346 348-767 767l-765 763-422-423z"/></svg></defs></svg></defs></svg>